<?xml version="1.0" encoding="UTF-8" standalone="no"?>
<!-- Created with Inkscape (http://www.inkscape.org/) -->

<svg
   xmlns:dc="http://purl.org/dc/elements/1.1/"
   xmlns:cc="http://creativecommons.org/ns#"
   xmlns:rdf="http://www.w3.org/1999/02/22-rdf-syntax-ns#"
   xmlns:svg="http://www.w3.org/2000/svg"
   xmlns="http://www.w3.org/2000/svg"
   xmlns:sodipodi="http://sodipodi.sourceforge.net/DTD/sodipodi-0.dtd"
   xmlns:inkscape="http://www.inkscape.org/namespaces/inkscape"
   width="440"
   height="440"
   viewBox="0 0 116.41667 116.41667"
   version="1.1"
   id="svg8"
   inkscape:version="0.92.4 (unknown)"
   sodipodi:docname="drawing.svg">
  <defs
     id="defs2" />
  <sodipodi:namedview
     id="base"
     pagecolor="#ffffff"
     bordercolor="#666666"
     borderopacity="1.0"
     inkscape:pageopacity="0.0"
     inkscape:pageshadow="2"
     inkscape:zoom="0.98994949"
     inkscape:cx="192.09552"
     inkscape:cy="253.81301"
     inkscape:document-units="px"
     inkscape:current-layer="layer1"
     showgrid="false"
     units="px"
     inkscape:window-width="1366"
     inkscape:window-height="689"
     inkscape:window-x="0"
     inkscape:window-y="24"
     inkscape:window-maximized="1">
    <inkscape:grid
       type="xygrid"
       id="grid815" />
  </sodipodi:namedview>
  <metadata
     id="metadata5">
    <rdf:RDF>
      <cc:Work
         rdf:about="">
        <dc:format>image/svg+xml</dc:format>
        <dc:type
           rdf:resource="http://purl.org/dc/dcmitype/StillImage" />
        <dc:title></dc:title>
      </cc:Work>
    </rdf:RDF>
  </metadata>
  <g
     inkscape:label="Layer 1"
     inkscape:groupmode="layer"
     id="layer1"
     transform="translate(0,-180.58333)">
    <rect
       style="opacity:1;fill:#e3e8fe;fill-opacity:1;stroke:none;stroke-width:1.0583334;stroke-linecap:round;stroke-linejoin:round;stroke-miterlimit:4;stroke-dasharray:none;stroke-dashoffset:0;stroke-opacity:0.98999999"
       id="rect863"
       width="116.41667"
       height="116.41667"
       x="0"
       y="180.58333"
       ry="0.046772249" />
    <g
       id="g861"
       transform="translate(-1.8527641,1.3229141)">
      <circle
         r="19.84375"
         cy="237.46875"
         cx="56.885418"
         id="path817"
         style="opacity:1;fill:#55ddff;fill-opacity:1;stroke:#000000;stroke-width:1.0583334;stroke-linecap:round;stroke-linejoin:round;stroke-miterlimit:4.69999981;stroke-dasharray:none;stroke-opacity:0.98999999" />
      <circle
         r="27.78125"
         cy="237.46875"
         cx="56.885418"
         id="path823"
         style="opacity:1;fill:none;fill-opacity:1;stroke:#000000;stroke-width:1.0583334;stroke-linecap:round;stroke-linejoin:round;stroke-miterlimit:4.69999981;stroke-dasharray:3.17500009, 3.17500009;stroke-dashoffset:0;stroke-opacity:0.98999999" />
      <path
         inkscape:transform-center-y="3.7811723"
         inkscape:transform-center-x="0.98707886"
         inkscape:connector-curvature="0"
         id="path827"
         d="m 71.22198,212.99113 c -1.192718,1.10037 -0.85211,2.06786 -0.85211,2.06786 l 3.513423,3.80829 -3.088984,8.61774 1.597009,1.73103 5.324799,-6.19429 3.832831,4.15449 -1.384791,4.48198 1.597015,1.73104 3.514496,-5.16503 5.430912,-3.08778 -1.597016,-1.73104 -4.578814,1.0199 -3.832831,-4.15449 6.602409,-4.80946 -1.597011,-1.73104 -8.838218,2.38604 -3.513421,-3.80828 c 0,0 -0.936977,-0.41731 -2.129691,0.68307 z"
         style="fill:#ffffff;stroke:#000000;stroke-width:1.0583334;stroke-linecap:butt;stroke-linejoin:miter;stroke-miterlimit:4;stroke-dasharray:none;stroke-opacity:1" />
      <path
         inkscape:connector-curvature="0"
         id="circle837"
         d="m 76.528717,240.11458 c -0.642827,0.0817 -2.856408,0.59853 -5.089097,3.94756 -2.645833,3.96875 -6.614583,1.32292 -10.583333,3.96875 -3.856308,2.57088 -5.203328,8.83886 -5.277197,9.19479 a 19.84375,19.84375 0 0 0 1.308446,0.0656 19.84375,19.84375 0 0 0 19.641181,-17.17673 z"
         style="opacity:1;fill:#44aa00;fill-opacity:1;stroke:#000000;stroke-width:1.0583334;stroke-linecap:round;stroke-linejoin:round;stroke-miterlimit:4.69999981;stroke-dasharray:none;stroke-opacity:0.98999999" />
      <path
         id="circle843"
         transform="matrix(0.26458334,0,0,0.26458334,0,180.58333)"
         d="M 171.07227,154.32422 A 74.999998,74.999998 0 0 0 140,215 a 74.999998,74.999998 0 0 0 0.18359,5.20508 c 16.37374,0.5347 47.52427,2.50276 54.81641,9.79492 10,9.99999 20,0 20,0 0,0 -25,-10.00001 -20,-20 5,-9.99999 25,-44.99999 15,-50 -5.22095,-2.61046 -22.69416,-5.20002 -38.92773,-5.67578 z"
         style="opacity:1;fill:#44aa00;fill-opacity:1;stroke:#000000;stroke-width:4;stroke-linecap:round;stroke-linejoin:round;stroke-miterlimit:4.69999981;stroke-dasharray:none;stroke-opacity:0.98999999"
         inkscape:connector-curvature="0" />
    </g>
  </g>
</svg>
