<?xml version="1.0" encoding="UTF-8" standalone="no"?>
<!-- Created with Inkscape (http://www.inkscape.org/) -->

<svg
   xmlns:dc="http://purl.org/dc/elements/1.1/"
   xmlns:cc="http://creativecommons.org/ns#"
   xmlns:rdf="http://www.w3.org/1999/02/22-rdf-syntax-ns#"
   xmlns:svg="http://www.w3.org/2000/svg"
   xmlns="http://www.w3.org/2000/svg"
   xmlns:sodipodi="http://sodipodi.sourceforge.net/DTD/sodipodi-0.dtd"
   xmlns:inkscape="http://www.inkscape.org/namespaces/inkscape"
   width="440"
   height="220"
   viewBox="0 0 116.41667 58.208335"
   version="1.1"
   id="svg8"
   inkscape:version="0.92.4 (unknown)"
   sodipodi:docname="drawing.svg">
  <defs
     id="defs2" />
  <sodipodi:namedview
     id="base"
     pagecolor="#ffffff"
     bordercolor="#666666"
     borderopacity="1.0"
     inkscape:pageopacity="0.0"
     inkscape:pageshadow="2"
     inkscape:zoom="1.4"
     inkscape:cx="180.27465"
     inkscape:cy="90.90974"
     inkscape:document-units="px"
     inkscape:current-layer="layer1"
     showgrid="false"
     units="px"
     inkscape:window-width="1366"
     inkscape:window-height="689"
     inkscape:window-x="0"
     inkscape:window-y="24"
     inkscape:window-maximized="1">
    <inkscape:grid
       type="xygrid"
       id="grid815" />
  </sodipodi:namedview>
  <metadata
     id="metadata5">
    <rdf:RDF>
      <cc:Work
         rdf:about="">
        <dc:format>image/svg+xml</dc:format>
        <dc:type
           rdf:resource="http://purl.org/dc/dcmitype/StillImage" />
        <dc:title></dc:title>
      </cc:Work>
    </rdf:RDF>
  </metadata>
  <g
     inkscape:label="Layer 1"
     inkscape:groupmode="layer"
     id="layer1"
     transform="translate(0,-238.79165)">
    <rect
       style="opacity:0.7;fill:#34558b;fill-opacity:1;stroke:#dee5c2;stroke-width:0.26499999;stroke-linecap:round;stroke-linejoin:round;stroke-miterlimit:4;stroke-dasharray:none;stroke-dashoffset:20;stroke-opacity:1"
       id="rect817"
       width="116.41667"
       height="58.208336"
       x="0"
       y="238.79166"
       ry="0.661461" />
    <g
       id="g872"
       transform="translate(1.9843759)">
      <path
         inkscape:connector-curvature="0"
         id="path823"
         d="m 46.302084,271.86457 2.645834,19.84375 h 13.229167 l 3.96875,-19.84375 z"
         style="fill:#ffffff;stroke:#000000;stroke-width:0.26458335px;stroke-linecap:butt;stroke-linejoin:miter;stroke-opacity:1" />
      <path
         inkscape:connector-curvature="0"
         id="path825"
         d="m 46.302084,271.86457 c 0,0 -1.322916,0 -1.322916,-1.32291 0,-1.32292 1.322916,-1.32292 1.322916,-1.32292 h 19.843751 c 0,0 1.322917,0 1.322917,1.32292 0,1.32291 -1.322917,1.32291 -1.322917,1.32291 z"
         style="fill:#536cb8;fill-opacity:0.70196078;stroke:#000000;stroke-width:0.26458335px;stroke-linecap:butt;stroke-linejoin:miter;stroke-opacity:1" />
      <path
         inkscape:connector-curvature="0"
         id="path829"
         d="m 46.302084,269.21874 1.322917,-3.96875 17.197917,1.32292 c 0,0 1.322917,0 1.322917,2.64583 z"
         style="fill:#ffffff;stroke:#000000;stroke-width:0.26458335px;stroke-linecap:butt;stroke-linejoin:miter;stroke-opacity:1" />
    </g>
    <g
       id="g867"
       transform="translate(2.8063301,-0.80180861)">
      <path
         inkscape:connector-curvature="0"
         id="path852"
         d="m 44.979168,253.34373 h -3.96875"
         style="fill:none;stroke:#000000;stroke-width:0.26458335px;stroke-linecap:butt;stroke-linejoin:miter;stroke-opacity:1" />
      <path
         transform="matrix(0.26458334,0,0,0.26458334,0,238.79165)"
         id="path859"
         d="m 200,54.999987 -20,-10e-7"
         style="fill:none;stroke:#000000;stroke-width:1px;stroke-linecap:butt;stroke-linejoin:miter;stroke-opacity:1"
         inkscape:connector-curvature="0" />
      <path
         transform="matrix(0.26458334,0,0,0.26458334,0,238.79165)"
         id="path836"
         d="m 185,95.00001 c 0,0 0,-10.000025 10,-10.000025 h 25 c 0,0 5,0 5,-4.999975 0,-5.000012 -5,-5.000012 -5,-5.000012 h -50 c 0,0 -5,0 -5,-5.000013 0,-4.999974 5,-4.999974 5,-4.999974 h 65 c 0,0 5,0 5,-5.000013 0,-5.000012 -5,-5.000012 -5,-5.000012 h -30"
         style="fill:none;stroke:#000000;stroke-width:1px;stroke-linecap:butt;stroke-linejoin:miter;stroke-opacity:1"
         inkscape:connector-curvature="0" />
    </g>
  </g>
</svg>
