<?xml version="1.0" encoding="UTF-8" standalone="no"?>
<svg
   xmlns:dc="http://purl.org/dc/elements/1.1/"
   xmlns:cc="http://creativecommons.org/ns#"
   xmlns:rdf="http://www.w3.org/1999/02/22-rdf-syntax-ns#"
   xmlns:svg="http://www.w3.org/2000/svg"
   xmlns="http://www.w3.org/2000/svg"
   id="svg8"
   version="1.1"
   viewBox="0 0 116.41666 58.208335"
   height="220"
   width="440">
  <defs
     id="defs2" />
  <metadata
     id="metadata5">
    <rdf:RDF>
      <cc:Work
         rdf:about="">
        <dc:format>image/svg+xml</dc:format>
        <dc:type
           rdf:resource="http://purl.org/dc/dcmitype/StillImage" />
        <dc:title></dc:title>
      </cc:Work>
    </rdf:RDF>
  </metadata>
  <g
     style="display:inline"
     transform="translate(0,-238.79164)"
     id="layer1">
    <rect
       y="238.79164"
       x="0"
       height="58.208332"
       width="116.41666"
       id="rect819"
       style="opacity:1;fill:#98ecff;fill-opacity:1;stroke:#000000;stroke-width:1.05833328;stroke-linecap:round;stroke-linejoin:miter;stroke-miterlimit:4;stroke-dasharray:none;stroke-dashoffset:20;stroke-opacity:1" />
    <path
       d="m 102.43155,249.75294 c 0.88123,0.14214 0.24317,1.25801 -0.23624,1.46466 -1.29917,0.56003 -2.514894,-0.74409 -2.693076,-1.93713 -0.318726,-2.13407 1.636226,-3.82295 3.638026,-3.9215 2.93772,-0.14462 5.15576,2.5354 5.14992,5.33892 -0.008,3.73666 -3.4364,6.49828 -7.03981,6.37834 -4.534527,-0.15092 -7.845647,-4.33812 -7.606766,-8.7407 0.289317,-5.33212 5.240211,-9.19579 10.441596,-8.83519 6.12966,0.42496 10.54768,6.14253 10.06361,12.1425 -0.55887,6.9272 -7.04499,11.90071 -13.84339,11.29202 -7.724771,-0.69163 -13.25457,-7.94756 -12.520446,-15.54428 0.823576,-8.52237 8.85021,-14.60902 17.245176,-13.74887 9.32,0.95493 15.96391,9.75292 14.97729,18.94607"
       id="path957"
       style="fill:none;fill-rule:evenodd;stroke:#000000;stroke-width:0.26458332"
       transform="matrix(0.64127752,0,0,0.68015677,-24.053271,75.051918)" />
    <path
       transform="matrix(0.64127752,0,0,0.68015677,-57.74955,76.857985)"
       style="fill:none;fill-rule:evenodd;stroke:#000000;stroke-width:0.26458332"
       id="path959"
       d="m 102.43155,249.75294 c 0.88123,0.14214 0.24317,1.25801 -0.23624,1.46466 -1.29917,0.56003 -2.514894,-0.74409 -2.693076,-1.93713 -0.318726,-2.13407 1.636226,-3.82295 3.638026,-3.9215 2.93772,-0.14462 5.15576,2.5354 5.14992,5.33892 -0.008,3.73666 -3.4364,6.49828 -7.03981,6.37834 -4.534527,-0.15092 -7.845647,-4.33812 -7.606766,-8.7407 0.289317,-5.33212 5.240211,-9.19579 10.441596,-8.83519 6.12966,0.42496 10.54768,6.14253 10.06361,12.1425 -0.55887,6.9272 -7.04499,11.90071 -13.84339,11.29202 -7.724771,-0.69163 -13.25457,-7.94756 -12.520446,-15.54428 0.823576,-8.52237 8.85021,-14.60902 17.245176,-13.74887 9.32,0.95493 15.96391,9.75292 14.97729,18.94607" />
    <path
       transform="matrix(1.0811951,0,0,1.1467456,-29.209795,-19.112287)"
       style="fill:none;fill-rule:evenodd;stroke:#000000;stroke-width:0.26458332"
       id="path955"
       d="m 102.43155,249.75294 c 0.88123,0.14214 0.24317,1.25801 -0.23624,1.46466 -1.29917,0.56003 -2.514894,-0.74409 -2.693076,-1.93713 -0.318726,-2.13407 1.636226,-3.82295 3.638026,-3.9215 2.93772,-0.14462 5.15576,2.5354 5.14992,5.33892 -0.008,3.73666 -3.4364,6.49828 -7.03981,6.37834 -4.534527,-0.15092 -7.845647,-4.33812 -7.606766,-8.7407 0.289317,-5.33212 5.240211,-9.19579 10.441596,-8.83519 6.12966,0.42496 10.54768,6.14253 10.06361,12.1425 -0.55887,6.9272 -7.04499,11.90071 -13.84339,11.29202 -7.724771,-0.69163 -13.25457,-7.94756 -12.520446,-15.54428 0.823576,-8.52237 8.85021,-14.60902 17.245176,-13.74887 9.32,0.95493 15.96391,9.75292 14.97729,18.94607" />
    <path
       transform="matrix(1.2312375,0,0,1.3058847,-20.248604,-80.478626)"
       style="fill:none;fill-rule:evenodd;stroke:#000000;stroke-width:0.26458332"
       id="path947"
       d="m 102.43155,249.75294 c 0.88123,0.14214 0.24317,1.25801 -0.23624,1.46466 -1.29917,0.56003 -2.514894,-0.74409 -2.693076,-1.93713 -0.318726,-2.13407 1.636226,-3.82295 3.638026,-3.9215 2.93772,-0.14462 5.15576,2.5354 5.14992,5.33892 -0.008,3.73666 -3.4364,6.49828 -7.03981,6.37834 -4.534527,-0.15092 -7.845647,-4.33812 -7.606766,-8.7407 0.289317,-5.33212 5.240211,-9.19579 10.441596,-8.83519 6.12966,0.42496 10.54768,6.14253 10.06361,12.1425 -0.55887,6.9272 -7.04499,11.90071 -13.84339,11.29202 -7.724771,-0.69163 -13.25457,-7.94756 -12.520446,-15.54428 0.823576,-8.52237 8.85021,-14.60902 17.245176,-13.74887 9.32,0.95493 15.96391,9.75292 14.97729,18.94607" />
    <path
       d="m 102.43155,249.75294 c 0.88123,0.14214 0.24317,1.25801 -0.23624,1.46466 -1.29917,0.56003 -2.514894,-0.74409 -2.693076,-1.93713 -0.318726,-2.13407 1.636226,-3.82295 3.638026,-3.9215 2.93772,-0.14462 5.15576,2.5354 5.14992,5.33892 -0.008,3.73666 -3.4364,6.49828 -7.03981,6.37834 -4.534527,-0.15092 -7.845647,-4.33812 -7.606766,-8.7407 0.289317,-5.33212 5.240211,-9.19579 10.441596,-8.83519 6.12966,0.42496 10.54768,6.14253 10.06361,12.1425 -0.55887,6.9272 -7.04499,11.90071 -13.84339,11.29202 -7.724771,-0.69163 -13.25457,-7.94756 -12.520446,-15.54428 0.823576,-8.52237 8.85021,-14.60902 17.245176,-13.74887 9.32,0.95493 15.96391,9.75292 14.97729,18.94607"
       id="path949"
       style="fill:none;fill-rule:evenodd;stroke:#000000;stroke-width:0.26458332"
       transform="matrix(1.0811951,0,0,1.1467456,-50.007092,-34.07061)" />
    <path
       d="m 24.757446,257.12347 c 0.881227,0.14214 0.243173,1.258 -0.236236,1.46466 -1.299168,0.56003 -2.514897,-0.74409 -2.693079,-1.93713 -0.318726,-2.13407 1.636221,-3.82295 3.638024,-3.9215 2.937727,-0.14462 5.155761,2.5354 5.149921,5.33892 -0.0078,3.73666 -3.436401,6.49828 -7.039811,6.37834 -4.534525,-0.15092 -7.845645,-4.33812 -7.606764,-8.7407 0.289317,-5.33212 5.240211,-9.19579 10.4416,-8.83519 6.129657,0.42496 10.547672,6.14253 10.063606,12.14249 -0.558875,6.92721 -7.044989,11.90072 -13.843388,11.29203 -7.724773,-0.69163 -13.2545719,-7.94756 -12.520448,-15.54428 0.823576,-8.52237 8.85021,-14.60902 17.245175,-13.74887 9.320003,0.95493 15.96391,9.75292 14.977291,18.94607"
       id="path945"
       style="fill:none;fill-rule:evenodd;stroke:#000000;stroke-width:0.26458332" />
    <rect
       y="267.89581"
       x="7.9375"
       height="29.104166"
       width="26.458332"
       id="rect821"
       style="opacity:1;fill:#bcd35f;fill-opacity:1;stroke:#000000;stroke-width:1.05833328;stroke-linecap:round;stroke-linejoin:miter;stroke-miterlimit:4;stroke-dasharray:none;stroke-dashoffset:20;stroke-opacity:1" />
    <rect
       y="252.02081"
       x="34.395832"
       height="44.979168"
       width="21.166666"
       id="rect823"
       style="opacity:1;fill:#5f8dd3;fill-opacity:1;stroke:#000000;stroke-width:1.05833328;stroke-linecap:round;stroke-linejoin:miter;stroke-miterlimit:4;stroke-dasharray:none;stroke-dashoffset:20;stroke-opacity:1" />
    <rect
       y="259.95831"
       x="55.5625"
       height="37.041668"
       width="10.583333"
       id="rect825"
       style="opacity:1;fill:#d40055;fill-opacity:1;stroke:#000000;stroke-width:1.05833328;stroke-linecap:round;stroke-linejoin:miter;stroke-miterlimit:4;stroke-dasharray:none;stroke-dashoffset:20;stroke-opacity:1" />
    <rect
       y="270.54163"
       x="66.145836"
       height="26.458332"
       width="23.8125"
       id="rect827"
       style="opacity:1;fill:#ffcc00;fill-opacity:1;stroke:#000000;stroke-width:1.05833328;stroke-linecap:round;stroke-linejoin:miter;stroke-miterlimit:4;stroke-dasharray:none;stroke-dashoffset:20;stroke-opacity:1" />
    <rect
       y="262.60413"
       x="89.958336"
       height="34.395832"
       width="26.458332"
       id="rect831"
       style="opacity:1;fill:#008000;fill-opacity:1;stroke:#000000;stroke-width:1.05833328;stroke-linecap:round;stroke-linejoin:miter;stroke-miterlimit:4;stroke-dasharray:none;stroke-dashoffset:20;stroke-opacity:1" />
    <rect
       y="246.72914"
       x="0"
       height="50.270832"
       width="7.9375"
       id="rect835"
       style="opacity:1;fill:#ff0000;fill-opacity:1;stroke:#000000;stroke-width:1.05833328;stroke-linecap:round;stroke-linejoin:miter;stroke-miterlimit:4;stroke-dasharray:none;stroke-dashoffset:20;stroke-opacity:1" />
    <rect
       y="249.37497"
       x="2.6458325"
       height="5.2916665"
       width="2.6458333"
       id="rect837"
       style="opacity:1;fill:#ffffff;fill-opacity:1;stroke:#000000;stroke-width:1.05833328;stroke-linecap:round;stroke-linejoin:miter;stroke-miterlimit:4;stroke-dasharray:none;stroke-dashoffset:20;stroke-opacity:1" />
    <rect
       style="opacity:1;fill:#ffffff;fill-opacity:1;stroke:#000000;stroke-width:1.05833328;stroke-linecap:round;stroke-linejoin:miter;stroke-miterlimit:4;stroke-dasharray:none;stroke-dashoffset:20;stroke-opacity:1"
       id="rect839"
       width="2.6458333"
       height="5.2916665"
       x="2.6458333"
       y="262.60416" />
    <rect
       y="275.83331"
       x="2.6458333"
       height="5.2916665"
       width="2.6458333"
       id="rect841"
       style="opacity:1;fill:#ffffff;fill-opacity:1;stroke:#000000;stroke-width:1.05833328;stroke-linecap:round;stroke-linejoin:miter;stroke-miterlimit:4;stroke-dasharray:none;stroke-dashoffset:20;stroke-opacity:1" />
    <rect
       style="opacity:1;fill:#ffffff;fill-opacity:1;stroke:#000000;stroke-width:1.05833328;stroke-linecap:round;stroke-linejoin:miter;stroke-miterlimit:4;stroke-dasharray:none;stroke-dashoffset:20;stroke-opacity:1"
       id="rect843"
       width="2.6458333"
       height="5.2916665"
       x="2.6458333"
       y="289.06247" />
    <path
       id="rect845"
       d="m 13.229166,270.54164 c -1.465789,0 -2.645833,1.18004 -2.645833,2.64583 v 2.64584 h 7.9375 v -2.64584 c 0,-1.46579 -1.180044,-2.64583 -2.645833,-2.64583 z"
       style="opacity:1;fill:#ffffff;fill-opacity:1;stroke:#000000;stroke-width:1.05833328;stroke-linecap:round;stroke-linejoin:miter;stroke-miterlimit:4;stroke-dasharray:none;stroke-dashoffset:20;stroke-opacity:1" />
    <path
       style="opacity:1;fill:#ffffff;fill-opacity:1;stroke:#000000;stroke-width:1.05833328;stroke-linecap:round;stroke-linejoin:miter;stroke-miterlimit:4;stroke-dasharray:none;stroke-dashoffset:20;stroke-opacity:1"
       d="m 26.458333,270.54164 c -1.465789,0 -2.645833,1.18004 -2.645833,2.64583 v 2.64584 H 31.75 v -2.64584 c 0,-1.46579 -1.180044,-2.64583 -2.645833,-2.64583 z"
       id="path850" />
    <path
       style="opacity:1;fill:#ffffff;fill-opacity:1;stroke:#000000;stroke-width:1.05833328;stroke-linecap:round;stroke-linejoin:miter;stroke-miterlimit:4;stroke-dasharray:none;stroke-dashoffset:20;stroke-opacity:1"
       d="m 13.229166,281.12497 c -1.465789,0 -2.645833,1.18004 -2.645833,2.64583 v 2.64584 h 7.9375 v -2.64584 c 0,-1.46579 -1.180044,-2.64583 -2.645833,-2.64583 z"
       id="path852" />
    <path
       id="path854"
       d="m 13.229166,291.7083 c -1.465789,0 -2.645833,1.18004 -2.645833,2.64583 v 2.64584 h 7.9375 v -2.64584 c 0,-1.46579 -1.180044,-2.64583 -2.645833,-2.64583 z"
       style="opacity:1;fill:#ffffff;fill-opacity:1;stroke:#000000;stroke-width:1.05833328;stroke-linecap:round;stroke-linejoin:miter;stroke-miterlimit:4;stroke-dasharray:none;stroke-dashoffset:20;stroke-opacity:1" />
    <path
       id="path856"
       d="m 26.458333,281.12497 c -1.465789,0 -2.645833,1.18004 -2.645833,2.64583 v 2.64584 H 31.75 v -2.64584 c 0,-1.46579 -1.180044,-2.64583 -2.645833,-2.64583 z"
       style="opacity:1;fill:#ffffff;fill-opacity:1;stroke:#000000;stroke-width:1.05833328;stroke-linecap:round;stroke-linejoin:miter;stroke-miterlimit:4;stroke-dasharray:none;stroke-dashoffset:20;stroke-opacity:1" />
    <path
       style="opacity:1;fill:#ffffff;fill-opacity:1;stroke:#000000;stroke-width:1.05833328;stroke-linecap:round;stroke-linejoin:miter;stroke-miterlimit:4;stroke-dasharray:none;stroke-dashoffset:20;stroke-opacity:1"
       d="m 26.458333,291.7083 c -1.465789,0 -2.645833,1.18004 -2.645833,2.64583 v 2.64584 H 31.75 v -2.64584 c 0,-1.46579 -1.180044,-2.64583 -2.645833,-2.64583 z"
       id="path858" />
    <rect
       y="254.66664"
       x="37.041668"
       height="5.2916665"
       width="5.2916665"
       id="rect860"
       style="opacity:1;fill:#ffffff;fill-opacity:1;stroke:#000000;stroke-width:1.05833328;stroke-linecap:round;stroke-linejoin:miter;stroke-miterlimit:4;stroke-dasharray:none;stroke-dashoffset:20;stroke-opacity:1" />
    <rect
       style="opacity:1;fill:#ffffff;fill-opacity:1;stroke:#000000;stroke-width:1.05833328;stroke-linecap:round;stroke-linejoin:miter;stroke-miterlimit:4;stroke-dasharray:none;stroke-dashoffset:20;stroke-opacity:1"
       id="rect862"
       width="5.2916665"
       height="5.2916665"
       x="47.624996"
       y="257.31247" />
    <rect
       y="267.89581"
       x="37.041668"
       height="5.2916665"
       width="5.2916665"
       id="rect864"
       style="opacity:1;fill:#ffffff;fill-opacity:1;stroke:#000000;stroke-width:1.05833328;stroke-linecap:round;stroke-linejoin:miter;stroke-miterlimit:4;stroke-dasharray:none;stroke-dashoffset:20;stroke-opacity:1" />
    <rect
       style="opacity:1;fill:#ffffff;fill-opacity:1;stroke:#000000;stroke-width:1.05833328;stroke-linecap:round;stroke-linejoin:miter;stroke-miterlimit:4;stroke-dasharray:none;stroke-dashoffset:20;stroke-opacity:1"
       id="rect866"
       width="5.2916665"
       height="5.2916665"
       x="47.624996"
       y="270.54166" />
    <rect
       style="opacity:1;fill:#ffffff;fill-opacity:1;stroke:#000000;stroke-width:1.05833328;stroke-linecap:round;stroke-linejoin:miter;stroke-miterlimit:4;stroke-dasharray:none;stroke-dashoffset:20;stroke-opacity:1"
       id="rect868"
       width="5.2916665"
       height="5.2916665"
       x="37.041672"
       y="281.12497" />
    <rect
       y="283.77081"
       x="47.625"
       height="5.2916665"
       width="5.2916665"
       id="rect870"
       style="opacity:1;fill:#ffffff;fill-opacity:1;stroke:#000000;stroke-width:1.05833328;stroke-linecap:round;stroke-linejoin:miter;stroke-miterlimit:4;stroke-dasharray:none;stroke-dashoffset:20;stroke-opacity:1" />
    <rect
       y="262.60413"
       x="58.208332"
       height="2.6458333"
       width="5.2916665"
       id="rect876"
       style="opacity:1;fill:#ffffff;fill-opacity:1;stroke:#000000;stroke-width:1.05833328;stroke-linecap:round;stroke-linejoin:miter;stroke-miterlimit:4;stroke-dasharray:none;stroke-dashoffset:20;stroke-opacity:1" />
    <rect
       style="opacity:1;fill:#ffffff;fill-opacity:1;stroke:#000000;stroke-width:1.05833328;stroke-linecap:round;stroke-linejoin:miter;stroke-miterlimit:4;stroke-dasharray:none;stroke-dashoffset:20;stroke-opacity:1"
       id="rect878"
       width="5.2916665"
       height="2.6458333"
       x="58.208332"
       y="267.89578" />
    <rect
       y="273.18747"
       x="58.208332"
       height="2.6458333"
       width="5.2916665"
       id="rect880"
       style="opacity:1;fill:#ffffff;fill-opacity:1;stroke:#000000;stroke-width:1.05833328;stroke-linecap:round;stroke-linejoin:miter;stroke-miterlimit:4;stroke-dasharray:none;stroke-dashoffset:20;stroke-opacity:1" />
    <rect
       style="opacity:1;fill:#ffffff;fill-opacity:1;stroke:#000000;stroke-width:1.05833328;stroke-linecap:round;stroke-linejoin:miter;stroke-miterlimit:4;stroke-dasharray:none;stroke-dashoffset:20;stroke-opacity:1"
       id="rect882"
       width="5.2916665"
       height="2.6458333"
       x="58.208332"
       y="278.47913" />
    <rect
       y="283.77081"
       x="58.208332"
       height="2.6458333"
       width="5.2916665"
       id="rect884"
       style="opacity:1;fill:#ffffff;fill-opacity:1;stroke:#000000;stroke-width:1.05833328;stroke-linecap:round;stroke-linejoin:miter;stroke-miterlimit:4;stroke-dasharray:none;stroke-dashoffset:20;stroke-opacity:1" />
    <rect
       style="opacity:1;fill:#ffffff;fill-opacity:1;stroke:#000000;stroke-width:1.05833328;stroke-linecap:round;stroke-linejoin:miter;stroke-miterlimit:4;stroke-dasharray:none;stroke-dashoffset:20;stroke-opacity:1"
       id="rect886"
       width="5.2916665"
       height="2.6458333"
       x="58.208332"
       y="291.70828" />
    <rect
       y="273.18747"
       x="68.791664"
       height="2.6458333"
       width="18.520834"
       id="rect888"
       style="opacity:1;fill:#ffffff;fill-opacity:1;stroke:#000000;stroke-width:1.05833328;stroke-linecap:round;stroke-linejoin:miter;stroke-miterlimit:4;stroke-dasharray:none;stroke-dashoffset:20;stroke-opacity:1" />
    <rect
       style="opacity:1;fill:#ffffff;fill-opacity:1;stroke:#000000;stroke-width:1.05833328;stroke-linecap:round;stroke-linejoin:miter;stroke-miterlimit:4;stroke-dasharray:none;stroke-dashoffset:20;stroke-opacity:1"
       id="rect895"
       width="18.520834"
       height="2.6458333"
       x="68.791664"
       y="278.47913" />
    <rect
       y="283.77078"
       x="68.791664"
       height="2.6458333"
       width="18.520834"
       id="rect897"
       style="opacity:1;fill:#ffffff;fill-opacity:1;stroke:#000000;stroke-width:1.05833328;stroke-linecap:round;stroke-linejoin:miter;stroke-miterlimit:4;stroke-dasharray:none;stroke-dashoffset:20;stroke-opacity:1" />
    <rect
       style="opacity:1;fill:#ffffff;fill-opacity:1;stroke:#000000;stroke-width:1.05833328;stroke-linecap:round;stroke-linejoin:miter;stroke-miterlimit:4;stroke-dasharray:none;stroke-dashoffset:20;stroke-opacity:1"
       id="rect899"
       width="18.520834"
       height="2.6458333"
       x="68.791664"
       y="289.06247" />
    <rect
       y="289.06247"
       x="68.791664"
       height="2.6458333"
       width="18.520834"
       id="rect901"
       style="opacity:1;fill:#ffffff;fill-opacity:1;stroke:#000000;stroke-width:1.05833328;stroke-linecap:round;stroke-linejoin:miter;stroke-miterlimit:4;stroke-dasharray:none;stroke-dashoffset:20;stroke-opacity:1" />
    <path
       style="opacity:1;fill:#ffffff;fill-opacity:1;stroke:#000000;stroke-width:1.05833328;stroke-linecap:round;stroke-linejoin:miter;stroke-miterlimit:4;stroke-dasharray:none;stroke-dashoffset:20;stroke-opacity:1"
       d="m 13.229166,270.54164 c -1.465789,0 -2.645833,1.18004 -2.645833,2.64583 v 2.64584 h 7.9375 v -2.64584 c 0,-1.46579 -1.180044,-2.64583 -2.645833,-2.64583 z"
       id="path907" />
    <path
       id="path909"
       d="m 94.368053,265.24997 c -0.977192,0 -1.763888,1.18004 -1.763888,2.64583 v 2.64584 h 5.291667 v -2.64584 c 0,-1.46579 -0.786699,-2.64583 -1.763891,-2.64583 z"
       style="opacity:1;fill:#ffffff;fill-opacity:1;stroke:#000000;stroke-width:0.86412525;stroke-linecap:round;stroke-linejoin:miter;stroke-miterlimit:4;stroke-dasharray:none;stroke-dashoffset:20;stroke-opacity:1" />
    <path
       style="opacity:1;fill:#ffffff;fill-opacity:1;stroke:#000000;stroke-width:0.86412525;stroke-linecap:round;stroke-linejoin:miter;stroke-miterlimit:4;stroke-dasharray:none;stroke-dashoffset:20;stroke-opacity:1"
       d="m 102.30555,265.24997 c -0.97719,0 -1.76389,1.18004 -1.76389,2.64583 v 2.64584 h 5.29167 v -2.64584 c 0,-1.46579 -0.7867,-2.64583 -1.76389,-2.64583 z"
       id="path911" />
    <path
       id="path913"
       d="m 110.24306,265.24997 c -0.97719,0 -1.76389,1.18004 -1.76389,2.64583 v 2.64584 h 5.29167 v -2.64584 c 0,-1.46579 -0.7867,-2.64583 -1.76389,-2.64583 z"
       style="opacity:1;fill:#ffffff;fill-opacity:1;stroke:#000000;stroke-width:0.86412525;stroke-linecap:round;stroke-linejoin:miter;stroke-miterlimit:4;stroke-dasharray:none;stroke-dashoffset:20;stroke-opacity:1" />
    <path
       style="opacity:1;fill:#ffffff;fill-opacity:1;stroke:#000000;stroke-width:0.86412525;stroke-linecap:round;stroke-linejoin:miter;stroke-miterlimit:4;stroke-dasharray:none;stroke-dashoffset:20;stroke-opacity:1"
       d="m 94.368048,273.18747 c -0.977192,0 -1.763888,1.18004 -1.763888,2.64583 v 2.64584 h 5.291667 v -2.64584 c 0,-1.46579 -0.786699,-2.64583 -1.763891,-2.64583 z"
       id="path915" />
    <path
       id="path917"
       d="m 102.30555,273.18747 c -0.97719,0 -1.76389,1.18004 -1.76389,2.64583 v 2.64584 h 5.29167 v -2.64584 c 0,-1.46579 -0.7867,-2.64583 -1.76389,-2.64583 z"
       style="opacity:1;fill:#ffffff;fill-opacity:1;stroke:#000000;stroke-width:0.86412525;stroke-linecap:round;stroke-linejoin:miter;stroke-miterlimit:4;stroke-dasharray:none;stroke-dashoffset:20;stroke-opacity:1" />
    <path
       style="opacity:1;fill:#ffffff;fill-opacity:1;stroke:#000000;stroke-width:0.86412525;stroke-linecap:round;stroke-linejoin:miter;stroke-miterlimit:4;stroke-dasharray:none;stroke-dashoffset:20;stroke-opacity:1"
       d="m 110.24306,273.18747 c -0.97719,0 -1.76389,1.18004 -1.76389,2.64583 v 2.64584 h 5.29167 v -2.64584 c 0,-1.46579 -0.7867,-2.64583 -1.76389,-2.64583 z"
       id="path919" />
    <path
       id="path921"
       d="m 94.368043,281.12497 c -0.977192,0 -1.763888,1.18004 -1.763888,2.64583 v 2.64584 h 5.291667 v -2.64584 c 0,-1.46579 -0.786699,-2.64583 -1.763891,-2.64583 z"
       style="opacity:1;fill:#ffffff;fill-opacity:1;stroke:#000000;stroke-width:0.86412525;stroke-linecap:round;stroke-linejoin:miter;stroke-miterlimit:4;stroke-dasharray:none;stroke-dashoffset:20;stroke-opacity:1" />
    <path
       style="opacity:1;fill:#ffffff;fill-opacity:1;stroke:#000000;stroke-width:0.86412525;stroke-linecap:round;stroke-linejoin:miter;stroke-miterlimit:4;stroke-dasharray:none;stroke-dashoffset:20;stroke-opacity:1"
       d="m 102.30555,281.12497 c -0.97719,0 -1.76389,1.18004 -1.76389,2.64583 v 2.64584 h 5.29167 v -2.64584 c 0,-1.46579 -0.7867,-2.64583 -1.76389,-2.64583 z"
       id="path923" />
    <path
       id="path925"
       d="m 110.24306,281.12497 c -0.97719,0 -1.76389,1.18004 -1.76389,2.64583 v 2.64584 h 5.29167 v -2.64584 c 0,-1.46579 -0.7867,-2.64583 -1.76389,-2.64583 z"
       style="opacity:1;fill:#ffffff;fill-opacity:1;stroke:#000000;stroke-width:0.86412525;stroke-linecap:round;stroke-linejoin:miter;stroke-miterlimit:4;stroke-dasharray:none;stroke-dashoffset:20;stroke-opacity:1" />
    <path
       style="opacity:1;fill:#ffffff;fill-opacity:1;stroke:#000000;stroke-width:0.86412525;stroke-linecap:round;stroke-linejoin:miter;stroke-miterlimit:4;stroke-dasharray:none;stroke-dashoffset:20;stroke-opacity:1"
       d="m 94.368038,289.06247 c -0.977192,0 -1.763888,1.18004 -1.763888,2.64583 v 2.64584 h 5.291667 v -2.64584 c 0,-1.46579 -0.786699,-2.64583 -1.763891,-2.64583 z"
       id="path927" />
    <path
       id="path929"
       d="m 102.30555,289.06247 c -0.97719,0 -1.76389,1.18004 -1.76389,2.64583 v 2.64584 h 5.29167 v -2.64584 c 0,-1.46579 -0.7867,-2.64583 -1.76389,-2.64583 z"
       style="opacity:1;fill:#ffffff;fill-opacity:1;stroke:#000000;stroke-width:0.86412525;stroke-linecap:round;stroke-linejoin:miter;stroke-miterlimit:4;stroke-dasharray:none;stroke-dashoffset:20;stroke-opacity:1" />
    <path
       style="opacity:1;fill:#ffffff;fill-opacity:1;stroke:#000000;stroke-width:0.86412525;stroke-linecap:round;stroke-linejoin:miter;stroke-miterlimit:4;stroke-dasharray:none;stroke-dashoffset:20;stroke-opacity:1"
       d="m 110.24306,289.06247 c -0.97719,0 -1.76389,1.18004 -1.76389,2.64583 v 2.64584 h 5.29167 v -2.64584 c 0,-1.46579 -0.7867,-2.64583 -1.76389,-2.64583 z"
       id="path931" />
  </g>
</svg>
