<?xml version="1.0" encoding="UTF-8" standalone="no"?>
<!-- Created with Inkscape (http://www.inkscape.org/) -->

<svg
   xmlns:dc="http://purl.org/dc/elements/1.1/"
   xmlns:cc="http://creativecommons.org/ns#"
   xmlns:rdf="http://www.w3.org/1999/02/22-rdf-syntax-ns#"
   xmlns:svg="http://www.w3.org/2000/svg"
   xmlns="http://www.w3.org/2000/svg"
   xmlns:sodipodi="http://sodipodi.sourceforge.net/DTD/sodipodi-0.dtd"
   xmlns:inkscape="http://www.inkscape.org/namespaces/inkscape"
   width="440"
   height="220"
   viewBox="0 0 116.41667 58.208335"
   version="1.1"
   id="svg8"
   sodipodi:docname="con-nong-noc-co-chan.svg"
   inkscape:version="0.92.4 (unknown)">
  <defs
     id="defs2">
    <mask
       maskUnits="userSpaceOnUse"
       id="mask851">
      <path
         id="path853"
         d="m -53.283571,283.97505 c 0,0 -2.116667,0 -2.910417,0.79375 -0.420296,0.42029 -0.688784,1.28065 -0.851628,2.00194 -2.01e-4,7.9e-4 -2.51e-4,0.002 -5.29e-4,0.003 -0.136607,0.37912 -0.20611,0.77367 -0.20619,1.17047 0,1.3365 0.773118,2.51578 1.954404,3.23494 l -0.366903,0.73381 0.264583,0.79375 h 1.322917 l -0.529167,-0.79375 0.280604,-0.28061 c 0.45117,0.15329 0.937085,0.2451 1.444871,0.26924 l -0.137975,0.27595 0.264583,0.52917 h 1.5875 l -0.529166,-0.52917 0.19327,-0.38602 c 0.791398,-0.16874 1.50074,-0.51325 2.07274,-0.97979 0.640104,-0.062 1.847649,-0.14923 2.231906,0.0429 0.529167,0.2646 1.5875,0.52917 1.5875,0.52917 -0.529166,-0.52917 -0.264583,-0.26458 -0.79375,-1.05833 -0.326956,-0.49044 -1.359167,-0.57609 -2.10168,-0.57051 0.326718,-0.54291 0.51418,-1.1573 0.51418,-1.81074 0,-2.19188 -2.073015,-3.96875 -4.630208,-3.96875 z"
         style="opacity:1;fill:#ffffff;fill-opacity:1;stroke:#000000;stroke-width:0.26500002;stroke-linecap:round;stroke-linejoin:round;stroke-miterlimit:4;stroke-dasharray:none;stroke-dashoffset:20;stroke-opacity:1"
         inkscape:connector-curvature="0" />
    </mask>
  </defs>
  <sodipodi:namedview
     id="base"
     pagecolor="#ffffff"
     bordercolor="#666666"
     borderopacity="1.0"
     inkscape:pageopacity="0.0"
     inkscape:pageshadow="2"
     inkscape:zoom="1.4142136"
     inkscape:cx="187.74292"
     inkscape:cy="106.43957"
     inkscape:document-units="px"
     inkscape:current-layer="layer3"
     showgrid="false"
     units="px"
     inkscape:window-width="1366"
     inkscape:window-height="689"
     inkscape:window-x="0"
     inkscape:window-y="24"
     inkscape:window-maximized="1">
    <inkscape:grid
       type="xygrid"
       id="grid815" />
  </sodipodi:namedview>
  <metadata
     id="metadata5">
    <rdf:RDF>
      <cc:Work
         rdf:about="">
        <dc:format>image/svg+xml</dc:format>
        <dc:type
           rdf:resource="http://purl.org/dc/dcmitype/StillImage" />
        <dc:title></dc:title>
      </cc:Work>
    </rdf:RDF>
  </metadata>
  <g
     inkscape:groupmode="layer"
     id="layer2"
     inkscape:label="Layer 0"
     style="display:inline"
     sodipodi:insensitive="true">
    <rect
       style="opacity:1;fill:#2ad4ff;fill-opacity:1;stroke:none;stroke-width:0.26500002;stroke-linecap:round;stroke-linejoin:round;stroke-miterlimit:4;stroke-dasharray:none;stroke-dashoffset:20;stroke-opacity:1"
       id="rect1007"
       width="116.41667"
       height="58.208336"
       x="0"
       y="0"
       ry="1.1363643e-06" />
  </g>
  <g
     inkscape:label="Layer 1"
     inkscape:groupmode="layer"
     id="layer1"
     transform="translate(0,-238.79165)"
     sodipodi:insensitive="true">
    <g
       id="g927"
       transform="matrix(4.5078366,0,0,4.5078366,-24.43491,-944.19007)">
      <g
         id="g900">
        <g
           id="g885">
          <g
             id="g878">
            <path
               inkscape:connector-curvature="0"
               id="path855"
               d="m 18.010603,265.34902 1.255913,-0.89601 0.199578,1.52981 z"
               style="fill:#552200;stroke:#000000;stroke-width:0.26458335px;stroke-linecap:round;stroke-linejoin:round;stroke-opacity:1" />
            <path
               style="fill:#552200;stroke:#000000;stroke-width:0.26458335px;stroke-linecap:round;stroke-linejoin:round;stroke-opacity:1"
               d="m 19.130623,265.67897 1.251174,-0.90261 0.207636,1.52873 z"
               id="path857"
               inkscape:connector-curvature="0" />
            <path
               inkscape:connector-curvature="0"
               id="path859"
               d="m 19.924373,265.94356 1.251174,-0.90261 0.207636,1.52873 z"
               style="fill:#552200;stroke:#000000;stroke-width:0.26458335px;stroke-linecap:round;stroke-linejoin:round;stroke-opacity:1" />
          </g>
          <path
             inkscape:connector-curvature="0"
             style="opacity:1;fill:#ff6600;fill-opacity:1;stroke:#000000;stroke-width:0.26500002;stroke-linecap:round;stroke-linejoin:round;stroke-miterlimit:4;stroke-dasharray:none;stroke-dashoffset:20;stroke-opacity:1"
             d="m 17.414433,264.98217 c 0,0 -2.116667,0 -2.910417,0.79375 -0.420296,0.4203 -0.688785,1.28066 -0.851628,2.00195 -2.01e-4,7.9e-4 -2.51e-4,0.002 -5.16e-4,0.003 -0.136607,0.37913 -0.20611,0.77368 -0.206189,1.17047 0,1.3365 0.773117,2.51578 1.954403,3.23495 l -0.366903,0.7338 0.264583,0.79375 h 1.322917 l -0.529167,-0.79375 0.280604,-0.2806 c 0.45117,0.15329 0.937085,0.2451 1.444871,0.26924 l -0.137975,0.27595 0.264583,0.52916 h 1.5875 l -0.529166,-0.52916 0.19327,-0.38602 c 0.791398,-0.16874 1.50074,-0.51325 2.072741,-0.97979 0.640103,-0.062 1.847649,-0.14924 2.231906,0.0429 0.529166,0.26459 1.5875,0.52917 1.5875,0.52917 -0.529167,-0.52917 -0.264584,-0.26459 -0.79375,-1.05834 -0.326957,-0.49043 -1.359168,-0.57609 -2.101681,-0.5705 0.326718,-0.54291 0.514181,-1.1573 0.514181,-1.81075 0,-2.19188 -2.073016,-3.96875 -4.630209,-3.96875 z"
             id="path861" />
        </g>
        <g
           id="g889">
          <circle
             style="opacity:1;fill:#ffffff;fill-opacity:1;stroke:#000000;stroke-width:0.26500002;stroke-linecap:square;stroke-linejoin:miter;stroke-miterlimit:4;stroke-dasharray:none;stroke-dashoffset:20;stroke-opacity:1"
             id="circle863"
             cx="15.694642"
             cy="266.17282"
             r="1.4552084" />
          <circle
             style="opacity:1;fill:#000000;fill-opacity:1;stroke:#000000;stroke-width:0.26500002;stroke-linecap:square;stroke-linejoin:miter;stroke-miterlimit:4;stroke-dasharray:none;stroke-dashoffset:20;stroke-opacity:1"
             id="circle865"
             cx="15.330838"
             cy="265.89169"
             r="0.66145837" />
        </g>
      </g>
      <ellipse
         style="opacity:1;fill:#ffccaa;fill-opacity:1;stroke:none;stroke-width:0.40167543;stroke-linecap:square;stroke-linejoin:miter;stroke-miterlimit:4;stroke-dasharray:none;stroke-dashoffset:20;stroke-opacity:1"
         id="ellipse871"
         cx="-55.635197"
         cy="290.96848"
         rx="2.5149183"
         ry="2.7020071"
         mask="url(#mask851)"
         transform="translate(70.698017,-18.99286)" />
      <path
         inkscape:connector-curvature="0"
         id="path869"
         d="m 13.710266,270.27384 c 0,0 3.704167,1.32292 5.027084,-1.32291"
         style="fill:none;stroke:#000000;stroke-width:0.26458335px;stroke-linecap:butt;stroke-linejoin:miter;stroke-opacity:1" />
    </g>
  </g>
  <g
     inkscape:groupmode="layer"
     id="layer3"
     inkscape:label="Layer 2">
    <path
       style="fill:#005522;stroke:none;stroke-width:0.26458335px;stroke-linecap:round;stroke-linejoin:round;stroke-opacity:1"
       d="m 17.197917,52.916668 c 0,-2.645833 1.322917,-3.96875 1.322917,-3.96875 -1.322917,0 -2.645834,1.322917 -2.645834,1.322917 0,-2.645834 -2.645833,-2.645834 -2.645833,-2.645834 1.322917,1.322917 1.322917,2.645834 1.322917,2.645834 L 11.90625,48.947918 c 0,0 1.058334,1.322917 1.322917,3.96875 z"
       id="path1014" />
    <path
       id="path1032"
       d="m 93.265627,49.609375 c 0,-1.984374 0.992188,-2.976562 0.992188,-2.976562 -0.992188,0 -1.984375,0.992188 -1.984375,0.992188 0,-1.984376 -1.984375,-1.984376 -1.984375,-1.984376 0.992188,0.992188 0.992188,1.984376 0.992188,1.984376 l -1.984376,-0.992188 c 0,0 0.793751,0.992188 0.992188,2.976562 z"
       style="fill:#005522;stroke:none;stroke-width:0.19843751px;stroke-linecap:round;stroke-linejoin:round;stroke-opacity:1"
       inkscape:connector-curvature="0" />
    <path
       inkscape:connector-curvature="0"
       style="fill:#005522;stroke:none;stroke-width:0.24804702px;stroke-linecap:round;stroke-linejoin:round;stroke-opacity:1"
       d="m 99.218753,53.908859 c 0,-2.480471 1.240237,-3.720705 1.240237,-3.720705 -1.240237,0 -2.480475,1.240234 -2.480475,1.240234 0,-2.48047 -2.480464,-2.48047 -2.480464,-2.48047 1.240238,1.240236 1.240238,2.48047 1.240238,2.48047 l -2.480473,-1.240234 c 0,0 0.992197,1.240234 1.240235,3.720705 z"
       id="path1034" />
    <text
       xml:space="preserve"
       style="font-style:normal;font-variant:normal;font-weight:bold;font-stretch:normal;font-size:10.58333397px;line-height:1.25;font-family:Purisa;-inkscape-font-specification:'Purisa, Bold';font-variant-ligatures:normal;font-variant-caps:normal;font-variant-numeric:normal;font-feature-settings:normal;text-align:start;letter-spacing:0px;word-spacing:0px;writing-mode:lr-tb;text-anchor:start;fill:#ffffff;fill-opacity:1;stroke:none;stroke-width:0.26458335;"
       x="-1.3993278"
       y="19.491175"
       id="text1046"
       transform="rotate(-21.286006)"><tspan
         sodipodi:role="line"
         id="tspan1044"
         x="-1.3993278"
         y="19.491175"
         style="font-style:normal;font-variant:normal;font-weight:bold;font-stretch:normal;font-size:10.58333397px;font-family:Purisa;-inkscape-font-specification:'Purisa, Bold';font-variant-ligatures:normal;font-variant-caps:normal;font-variant-numeric:normal;font-feature-settings:normal;text-align:start;writing-mode:lr-tb;text-anchor:start;stroke-width:0.26458335;fill:#ffffff;">2020</tspan></text>
    <circle
       style="opacity:1;fill:#ffffff;fill-opacity:1;stroke:none;stroke-width:0.26500002;stroke-linecap:round;stroke-linejoin:round;stroke-miterlimit:4;stroke-dasharray:none;stroke-dashoffset:20;stroke-opacity:1"
       id="path1050"
       cx="81.664207"
       cy="7.0395827"
       r="3.2740519" />
    <circle
       style="opacity:1;fill:#ffffff;fill-opacity:1;stroke:none;stroke-width:0.26500002;stroke-linecap:round;stroke-linejoin:round;stroke-miterlimit:4;stroke-dasharray:none;stroke-dashoffset:20;stroke-opacity:1"
       id="path1052"
       cx="106.95782"
       cy="9.9880209"
       r="3.5057292" />
    <circle
       style="opacity:1;fill:#ffffff;fill-opacity:1;stroke:none;stroke-width:0.26500002;stroke-linecap:round;stroke-linejoin:round;stroke-miterlimit:4;stroke-dasharray:none;stroke-dashoffset:20;stroke-opacity:1"
       id="path1054"
       cx="92.638885"
       cy="28.259182"
       r="4.8286462" />
    <circle
       r="7.3543434"
       cy="33.591209"
       cx="17.709873"
       id="circle1056"
       style="opacity:1;fill:#ffffff;fill-opacity:1;stroke:none;stroke-width:0.40361232;stroke-linecap:round;stroke-linejoin:round;stroke-miterlimit:4;stroke-dasharray:none;stroke-dashoffset:20;stroke-opacity:1" />
  </g>
</svg>
