<?xml version="1.0" encoding="UTF-8" standalone="no"?>
<!-- Created with Inkscape (http://www.inkscape.org/) -->

<svg
   xmlns:dc="http://purl.org/dc/elements/1.1/"
   xmlns:cc="http://creativecommons.org/ns#"
   xmlns:rdf="http://www.w3.org/1999/02/22-rdf-syntax-ns#"
   xmlns:svg="http://www.w3.org/2000/svg"
   xmlns="http://www.w3.org/2000/svg"
   xmlns:sodipodi="http://sodipodi.sourceforge.net/DTD/sodipodi-0.dtd"
   xmlns:inkscape="http://www.inkscape.org/namespaces/inkscape"
   width="500"
   height="1000"
   viewBox="0 0 132.29166 264.58334"
   version="1.1"
   id="svg8"
   inkscape:export-filename="/home/hungk/Desktop/vechovui/con-gi-ay-trai-tim/draw.png"
   inkscape:export-xdpi="210"
   inkscape:export-ydpi="210"
   inkscape:version="0.92.4 (unknown)"
   sodipodi:docname="drawing-1.svg">
  <defs
     id="defs2">
    <inkscape:path-effect
       effect="simplify"
       id="path-effect821"
       is_visible="true"
       steps="1"
       threshold="0.00176863"
       smooth_angles="360"
       helper_size="0"
       simplify_individual_paths="false"
       simplify_just_coalesce="false"
       simplifyindividualpaths="false"
       simplifyJustCoalesce="false" />
  </defs>
  <sodipodi:namedview
     id="base"
     pagecolor="#ffffff"
     bordercolor="#666666"
     borderopacity="1.0"
     inkscape:pageopacity="0.0"
     inkscape:pageshadow="2"
     inkscape:zoom="0.35"
     inkscape:cx="-360.32601"
     inkscape:cy="529.82878"
     inkscape:document-units="mm"
     inkscape:current-layer="layer1"
     showgrid="false"
     units="px"
     inkscape:window-width="1366"
     inkscape:window-height="689"
     inkscape:window-x="0"
     inkscape:window-y="24"
     inkscape:window-maximized="1">
    <inkscape:grid
       type="xygrid"
       id="grid815" />
  </sodipodi:namedview>
  <metadata
     id="metadata5">
    <rdf:RDF>
      <cc:Work
         rdf:about="">
        <dc:format>image/svg+xml</dc:format>
        <dc:type
           rdf:resource="http://purl.org/dc/dcmitype/StillImage" />
        <dc:title></dc:title>
      </cc:Work>
    </rdf:RDF>
  </metadata>
  <g
     inkscape:groupmode="layer"
     id="layer2"
     inkscape:label="Layer 2"
     sodipodi:insensitive="true">
    <rect
       transform="translate(0,-32.416642)"
       style="opacity:1;fill:#49a1ff;fill-opacity:1;stroke:none;stroke-width:1.05833328;stroke-linecap:round;stroke-linejoin:round;stroke-miterlimit:4;stroke-dasharray:none;stroke-dashoffset:0;stroke-opacity:0.98999999"
       id="rect817"
       width="132.29167"
       height="264.58334"
       x="0"
       y="32.416641"
       ry="0.046772249" />
  </g>
  <g
     inkscape:label="Layer 1"
     inkscape:groupmode="layer"
     id="layer1"
     transform="translate(0,-32.416641)">
    <path
       inkscape:connector-curvature="0"
       style="fill:#d1ff36;fill-opacity:1;stroke:#000000;stroke-width:0.44921008px;stroke-linecap:butt;stroke-linejoin:miter;stroke-opacity:1"
       d="m 81.190519,157.03594 c -0.394815,0.008 -0.710664,0.0711 -0.710664,0.0711 -22.46051,4.49212 -13.476303,24.70656 -13.476303,24.70656 0,0 -4.492096,15.72235 0,44.92101 h 49.413108 c 0,0 8.98421,-33.69076 0,-44.92101 5.63112,-25.62659 -8.9842,-24.70656 -8.9842,-24.70656 0,0 -2.24605,0 -2.24605,0.89842 0,0.89843 2.24605,1.34763 2.24605,1.34763 11.23025,2.24606 6.73815,20.21446 6.73815,20.21446 0,0 -8.9842,-13.4763 -24.706552,-13.4763 -15.722359,0 -20.214455,13.4763 -20.214455,13.4763 -4.492115,-17.9684 11.230252,-20.21446 11.230252,-20.21446 0,0 2.246051,0 2.246051,-1.34763 0,-0.84227 -0.877361,-0.98264 -1.535387,-0.96948 z"
       id="path833" />
    <circle
       style="opacity:1;fill:#e4dbd7;fill-opacity:1;stroke:#000000;stroke-width:0.44921008;stroke-linecap:round;stroke-linejoin:round;stroke-miterlimit:4;stroke-dasharray:none;stroke-dashoffset:0;stroke-opacity:0.98999999"
       id="path853"
       cx="83.367638"
       cy="173.31064"
       r="2.2460506" />
    <circle
       style="opacity:1;fill:#e4dbd7;fill-opacity:1;stroke:#000000;stroke-width:0.44921008;stroke-linecap:round;stroke-linejoin:round;stroke-miterlimit:4;stroke-dasharray:none;stroke-dashoffset:0;stroke-opacity:0.98999999"
       id="path855"
       cx="97.646111"
       cy="174.11281"
       r="2.2460506" />
    <path
       style="fill:none;stroke:#000000;stroke-width:0.44921008px;stroke-linecap:butt;stroke-linejoin:miter;stroke-opacity:1"
       d="m 75.987759,177.32146 c 0,0 4.492095,2.24604 6.738152,2.24604"
       id="path857"
       inkscape:connector-curvature="0" />
    <path
       style="fill:none;stroke:#000000;stroke-width:0.44921008px;stroke-linecap:butt;stroke-linejoin:miter;stroke-opacity:1"
       d="m 75.987759,181.81356 h 6.738152"
       id="path859"
       inkscape:connector-curvature="0" />
    <path
       style="fill:none;stroke:#000000;stroke-width:0.44921008px;stroke-linecap:butt;stroke-linejoin:miter;stroke-opacity:1"
       d="m 75.987759,186.30565 c 0,0 4.492095,-2.24604 6.738152,-2.24604"
       id="path861"
       inkscape:connector-curvature="0" />
    <path
       inkscape:connector-curvature="0"
       id="path863"
       d="m 105.18641,177.32146 c 0,0 -4.4921,2.24604 -6.738152,2.24604"
       style="fill:none;stroke:#000000;stroke-width:0.44921008px;stroke-linecap:butt;stroke-linejoin:miter;stroke-opacity:1" />
    <path
       inkscape:connector-curvature="0"
       id="path865"
       d="M 105.18641,181.81356 H 98.448258"
       style="fill:none;stroke:#000000;stroke-width:0.44921008px;stroke-linecap:butt;stroke-linejoin:miter;stroke-opacity:1" />
    <path
       inkscape:connector-curvature="0"
       id="path867"
       d="m 105.18641,186.30565 c 0,0 -4.4921,-2.24604 -6.738152,-2.24604"
       style="fill:none;stroke:#000000;stroke-width:0.44921008px;stroke-linecap:butt;stroke-linejoin:miter;stroke-opacity:1" />
    <circle
       style="opacity:1;fill:#000000;fill-opacity:1;stroke:#000000;stroke-width:0.44921008;stroke-linecap:round;stroke-linejoin:round;stroke-miterlimit:4;stroke-dasharray:none;stroke-dashoffset:0;stroke-opacity:0.98999999"
       id="path882"
       cx="83.288559"
       cy="173.73235"
       r="0.44921008" />
    <circle
       r="0.44921008"
       cy="174.69661"
       cx="97.75251"
       id="circle912"
       style="opacity:1;fill:#000000;fill-opacity:1;stroke:#000000;stroke-width:0.44921008;stroke-linecap:round;stroke-linejoin:round;stroke-miterlimit:4;stroke-dasharray:none;stroke-dashoffset:0;stroke-opacity:0.98999999" />
    <path
       style="fill:none;stroke:#000000;stroke-width:0.44921008px;stroke-linecap:butt;stroke-linejoin:miter;stroke-opacity:1"
       d="m 84.97195,181.81356 c 0,0 0,2.24605 4.492112,2.24605 4.492098,0 6.738149,-2.24605 6.738149,-2.24605"
       id="path914"
       inkscape:connector-curvature="0" />
    <path
       style="fill:#ff2a2a;stroke:#000000;stroke-width:0.26458332px;stroke-linecap:butt;stroke-linejoin:miter;stroke-opacity:1"
       d="m 88.807343,161.09549 c 0,0 -2.115798,-7.17822 -0.850185,-9.50173 1.265607,-2.3235 3.060167,-2.85245 4.221912,-2.21965 1.161757,0.63281 0.425097,4.75086 0.425097,4.75086 0,0 1.898414,-3.48524 4.221914,-2.21964 2.323502,1.26561 1.057882,3.58911 0.425088,4.75086 -0.632806,1.16175 -8.443826,4.4393 -8.443826,4.4393 z"
       id="path962"
       inkscape:connector-curvature="0" />
  </g>
</svg>
