<?xml version="1.0" encoding="UTF-8" standalone="no"?>
<!-- Created with Inkscape (http://www.inkscape.org/) -->

<svg
   xmlns:dc="http://purl.org/dc/elements/1.1/"
   xmlns:cc="http://creativecommons.org/ns#"
   xmlns:rdf="http://www.w3.org/1999/02/22-rdf-syntax-ns#"
   xmlns:svg="http://www.w3.org/2000/svg"
   xmlns="http://www.w3.org/2000/svg"
   xmlns:sodipodi="http://sodipodi.sourceforge.net/DTD/sodipodi-0.dtd"
   xmlns:inkscape="http://www.inkscape.org/namespaces/inkscape"
   width="440"
   height="220"
   viewBox="0 0 116.41666 58.208335"
   version="1.1"
   id="svg8"
   inkscape:version="0.92.4 (unknown)"
   sodipodi:docname="drawing.svg">
  <defs
     id="defs2" />
  <sodipodi:namedview
     id="base"
     pagecolor="#ffffff"
     bordercolor="#666666"
     borderopacity="1.0"
     inkscape:pageopacity="0.0"
     inkscape:pageshadow="2"
     inkscape:zoom="1.4"
     inkscape:cx="203.8426"
     inkscape:cy="77.356956"
     inkscape:document-units="px"
     inkscape:current-layer="layer1"
     showgrid="false"
     units="px"
     inkscape:showpageshadow="false"
     showguides="false"
     inkscape:window-width="1366"
     inkscape:window-height="689"
     inkscape:window-x="0"
     inkscape:window-y="24"
     inkscape:window-maximized="1">
    <inkscape:grid
       type="xygrid"
       id="grid815" />
  </sodipodi:namedview>
  <metadata
     id="metadata5">
    <rdf:RDF>
      <cc:Work
         rdf:about="">
        <dc:format>image/svg+xml</dc:format>
        <dc:type
           rdf:resource="http://purl.org/dc/dcmitype/StillImage" />
        <dc:title></dc:title>
      </cc:Work>
    </rdf:RDF>
  </metadata>
  <g
     inkscape:label="Layer 1"
     inkscape:groupmode="layer"
     id="layer1"
     transform="translate(0,-238.79164)"
     style="display:inline">
    <rect
       style="opacity:1;fill:#98ecff;fill-opacity:1;stroke:#000000;stroke-width:1.05833328;stroke-linecap:round;stroke-linejoin:miter;stroke-miterlimit:4;stroke-dasharray:none;stroke-dashoffset:20;stroke-opacity:1"
       id="rect819"
       width="116.41666"
       height="58.208332"
       x="0"
       y="238.79164" />
    <path
       transform="matrix(0.64127752,0,0,0.68015677,-24.053271,75.051918)"
       sodipodi:type="spiral"
       style="fill:none;fill-rule:evenodd;stroke:#000000;stroke-width:0.26458332"
       id="path957"
       sodipodi:cx="102.43155"
       sodipodi:cy="249.75294"
       sodipodi:expansion="1"
       sodipodi:revolution="3"
       sodipodi:radius="17.80304"
       sodipodi:argument="-18.689642"
       sodipodi:t0="0"
       d="m 102.43155,249.75294 c 0.88123,0.14214 0.24317,1.25801 -0.23624,1.46466 -1.29917,0.56003 -2.514894,-0.74409 -2.693076,-1.93713 -0.318726,-2.13407 1.636226,-3.82295 3.638026,-3.9215 2.93772,-0.14462 5.15576,2.5354 5.14992,5.33892 -0.008,3.73666 -3.4364,6.49828 -7.03981,6.37834 -4.534527,-0.15092 -7.845647,-4.33812 -7.606766,-8.7407 0.289317,-5.33212 5.240211,-9.19579 10.441596,-8.83519 6.12966,0.42496 10.54768,6.14253 10.06361,12.1425 -0.55887,6.9272 -7.04499,11.90071 -13.84339,11.29202 -7.724771,-0.69163 -13.25457,-7.94756 -12.520446,-15.54428 0.823576,-8.52237 8.85021,-14.60902 17.245176,-13.74887 9.32,0.95493 15.96391,9.75292 14.97729,18.94607" />
    <path
       d="m 102.43155,249.75294 c 0.88123,0.14214 0.24317,1.25801 -0.23624,1.46466 -1.29917,0.56003 -2.514894,-0.74409 -2.693076,-1.93713 -0.318726,-2.13407 1.636226,-3.82295 3.638026,-3.9215 2.93772,-0.14462 5.15576,2.5354 5.14992,5.33892 -0.008,3.73666 -3.4364,6.49828 -7.03981,6.37834 -4.534527,-0.15092 -7.845647,-4.33812 -7.606766,-8.7407 0.289317,-5.33212 5.240211,-9.19579 10.441596,-8.83519 6.12966,0.42496 10.54768,6.14253 10.06361,12.1425 -0.55887,6.9272 -7.04499,11.90071 -13.84339,11.29202 -7.724771,-0.69163 -13.25457,-7.94756 -12.520446,-15.54428 0.823576,-8.52237 8.85021,-14.60902 17.245176,-13.74887 9.32,0.95493 15.96391,9.75292 14.97729,18.94607"
       sodipodi:t0="0"
       sodipodi:argument="-18.689642"
       sodipodi:radius="17.80304"
       sodipodi:revolution="3"
       sodipodi:expansion="1"
       sodipodi:cy="249.75294"
       sodipodi:cx="102.43155"
       id="path959"
       style="fill:none;fill-rule:evenodd;stroke:#000000;stroke-width:0.26458332"
       sodipodi:type="spiral"
       transform="matrix(0.64127752,0,0,0.68015677,-57.74955,76.857985)" />
    <path
       d="m 102.43155,249.75294 c 0.88123,0.14214 0.24317,1.25801 -0.23624,1.46466 -1.29917,0.56003 -2.514894,-0.74409 -2.693076,-1.93713 -0.318726,-2.13407 1.636226,-3.82295 3.638026,-3.9215 2.93772,-0.14462 5.15576,2.5354 5.14992,5.33892 -0.008,3.73666 -3.4364,6.49828 -7.03981,6.37834 -4.534527,-0.15092 -7.845647,-4.33812 -7.606766,-8.7407 0.289317,-5.33212 5.240211,-9.19579 10.441596,-8.83519 6.12966,0.42496 10.54768,6.14253 10.06361,12.1425 -0.55887,6.9272 -7.04499,11.90071 -13.84339,11.29202 -7.724771,-0.69163 -13.25457,-7.94756 -12.520446,-15.54428 0.823576,-8.52237 8.85021,-14.60902 17.245176,-13.74887 9.32,0.95493 15.96391,9.75292 14.97729,18.94607"
       sodipodi:t0="0"
       sodipodi:argument="-18.689642"
       sodipodi:radius="17.80304"
       sodipodi:revolution="3"
       sodipodi:expansion="1"
       sodipodi:cy="249.75294"
       sodipodi:cx="102.43155"
       id="path955"
       style="fill:none;fill-rule:evenodd;stroke:#000000;stroke-width:0.26458332"
       sodipodi:type="spiral"
       transform="matrix(1.0811951,0,0,1.1467456,-29.209795,-19.112287)" />
    <path
       d="m 102.43155,249.75294 c 0.88123,0.14214 0.24317,1.25801 -0.23624,1.46466 -1.29917,0.56003 -2.514894,-0.74409 -2.693076,-1.93713 -0.318726,-2.13407 1.636226,-3.82295 3.638026,-3.9215 2.93772,-0.14462 5.15576,2.5354 5.14992,5.33892 -0.008,3.73666 -3.4364,6.49828 -7.03981,6.37834 -4.534527,-0.15092 -7.845647,-4.33812 -7.606766,-8.7407 0.289317,-5.33212 5.240211,-9.19579 10.441596,-8.83519 6.12966,0.42496 10.54768,6.14253 10.06361,12.1425 -0.55887,6.9272 -7.04499,11.90071 -13.84339,11.29202 -7.724771,-0.69163 -13.25457,-7.94756 -12.520446,-15.54428 0.823576,-8.52237 8.85021,-14.60902 17.245176,-13.74887 9.32,0.95493 15.96391,9.75292 14.97729,18.94607"
       sodipodi:t0="0"
       sodipodi:argument="-18.689642"
       sodipodi:radius="17.80304"
       sodipodi:revolution="3"
       sodipodi:expansion="1"
       sodipodi:cy="249.75294"
       sodipodi:cx="102.43155"
       id="path947"
       style="fill:none;fill-rule:evenodd;stroke:#000000;stroke-width:0.26458332"
       sodipodi:type="spiral"
       transform="matrix(1.2312375,0,0,1.3058847,-20.248604,-80.478626)" />
    <path
       transform="matrix(1.0811951,0,0,1.1467456,-50.007092,-34.07061)"
       sodipodi:type="spiral"
       style="fill:none;fill-rule:evenodd;stroke:#000000;stroke-width:0.26458332"
       id="path949"
       sodipodi:cx="102.43155"
       sodipodi:cy="249.75294"
       sodipodi:expansion="1"
       sodipodi:revolution="3"
       sodipodi:radius="17.80304"
       sodipodi:argument="-18.689642"
       sodipodi:t0="0"
       d="m 102.43155,249.75294 c 0.88123,0.14214 0.24317,1.25801 -0.23624,1.46466 -1.29917,0.56003 -2.514894,-0.74409 -2.693076,-1.93713 -0.318726,-2.13407 1.636226,-3.82295 3.638026,-3.9215 2.93772,-0.14462 5.15576,2.5354 5.14992,5.33892 -0.008,3.73666 -3.4364,6.49828 -7.03981,6.37834 -4.534527,-0.15092 -7.845647,-4.33812 -7.606766,-8.7407 0.289317,-5.33212 5.240211,-9.19579 10.441596,-8.83519 6.12966,0.42496 10.54768,6.14253 10.06361,12.1425 -0.55887,6.9272 -7.04499,11.90071 -13.84339,11.29202 -7.724771,-0.69163 -13.25457,-7.94756 -12.520446,-15.54428 0.823576,-8.52237 8.85021,-14.60902 17.245176,-13.74887 9.32,0.95493 15.96391,9.75292 14.97729,18.94607" />
    <path
       sodipodi:type="spiral"
       style="fill:none;fill-rule:evenodd;stroke:#000000;stroke-width:0.26458332"
       id="path945"
       sodipodi:cx="24.757446"
       sodipodi:cy="257.12347"
       sodipodi:expansion="1"
       sodipodi:revolution="3"
       sodipodi:radius="17.80304"
       sodipodi:argument="-18.689642"
       sodipodi:t0="0"
       d="m 24.757446,257.12347 c 0.881227,0.14214 0.243173,1.258 -0.236236,1.46466 -1.299168,0.56003 -2.514897,-0.74409 -2.693079,-1.93713 -0.318726,-2.13407 1.636221,-3.82295 3.638024,-3.9215 2.937727,-0.14462 5.155761,2.5354 5.149921,5.33892 -0.0078,3.73666 -3.436401,6.49828 -7.039811,6.37834 -4.534525,-0.15092 -7.845645,-4.33812 -7.606764,-8.7407 0.289317,-5.33212 5.240211,-9.19579 10.4416,-8.83519 6.129657,0.42496 10.547672,6.14253 10.063606,12.14249 -0.558875,6.92721 -7.044989,11.90072 -13.843388,11.29203 -7.724773,-0.69163 -13.2545719,-7.94756 -12.520448,-15.54428 0.823576,-8.52237 8.85021,-14.60902 17.245175,-13.74887 9.320003,0.95493 15.96391,9.75292 14.977291,18.94607" />
    <rect
       style="opacity:1;fill:#bcd35f;fill-opacity:1;stroke:#000000;stroke-width:1.05833328;stroke-linecap:round;stroke-linejoin:miter;stroke-miterlimit:4;stroke-dasharray:none;stroke-dashoffset:20;stroke-opacity:1"
       id="rect821"
       width="26.458332"
       height="29.104166"
       x="7.9375"
       y="267.89581" />
    <rect
       style="opacity:1;fill:#5f8dd3;fill-opacity:1;stroke:#000000;stroke-width:1.05833328;stroke-linecap:round;stroke-linejoin:miter;stroke-miterlimit:4;stroke-dasharray:none;stroke-dashoffset:20;stroke-opacity:1"
       id="rect823"
       width="21.166666"
       height="44.979168"
       x="34.395832"
       y="252.02081" />
    <rect
       style="opacity:1;fill:#d40055;fill-opacity:1;stroke:#000000;stroke-width:1.05833328;stroke-linecap:round;stroke-linejoin:miter;stroke-miterlimit:4;stroke-dasharray:none;stroke-dashoffset:20;stroke-opacity:1"
       id="rect825"
       width="10.583333"
       height="37.041668"
       x="55.5625"
       y="259.95831" />
    <rect
       style="opacity:1;fill:#ffcc00;fill-opacity:1;stroke:#000000;stroke-width:1.05833328;stroke-linecap:round;stroke-linejoin:miter;stroke-miterlimit:4;stroke-dasharray:none;stroke-dashoffset:20;stroke-opacity:1"
       id="rect827"
       width="23.8125"
       height="26.458332"
       x="66.145836"
       y="270.54163" />
    <rect
       style="opacity:1;fill:#008000;fill-opacity:1;stroke:#000000;stroke-width:1.05833328;stroke-linecap:round;stroke-linejoin:miter;stroke-miterlimit:4;stroke-dasharray:none;stroke-dashoffset:20;stroke-opacity:1"
       id="rect831"
       width="26.458332"
       height="34.395832"
       x="89.958336"
       y="262.60413" />
    <rect
       style="opacity:1;fill:#ff0000;fill-opacity:1;stroke:#000000;stroke-width:1.05833328;stroke-linecap:round;stroke-linejoin:miter;stroke-miterlimit:4;stroke-dasharray:none;stroke-dashoffset:20;stroke-opacity:1"
       id="rect835"
       width="7.9375"
       height="50.270832"
       x="0"
       y="246.72914" />
    <rect
       style="opacity:1;fill:#ffffff;fill-opacity:1;stroke:#000000;stroke-width:1.05833328;stroke-linecap:round;stroke-linejoin:miter;stroke-miterlimit:4;stroke-dasharray:none;stroke-dashoffset:20;stroke-opacity:1"
       id="rect837"
       width="2.6458333"
       height="5.2916665"
       x="2.6458325"
       y="249.37497" />
    <rect
       y="262.60416"
       x="2.6458333"
       height="5.2916665"
       width="2.6458333"
       id="rect839"
       style="opacity:1;fill:#ffffff;fill-opacity:1;stroke:#000000;stroke-width:1.05833328;stroke-linecap:round;stroke-linejoin:miter;stroke-miterlimit:4;stroke-dasharray:none;stroke-dashoffset:20;stroke-opacity:1" />
    <rect
       style="opacity:1;fill:#ffffff;fill-opacity:1;stroke:#000000;stroke-width:1.05833328;stroke-linecap:round;stroke-linejoin:miter;stroke-miterlimit:4;stroke-dasharray:none;stroke-dashoffset:20;stroke-opacity:1"
       id="rect841"
       width="2.6458333"
       height="5.2916665"
       x="2.6458333"
       y="275.83331" />
    <rect
       y="289.06247"
       x="2.6458333"
       height="5.2916665"
       width="2.6458333"
       id="rect843"
       style="opacity:1;fill:#ffffff;fill-opacity:1;stroke:#000000;stroke-width:1.05833328;stroke-linecap:round;stroke-linejoin:miter;stroke-miterlimit:4;stroke-dasharray:none;stroke-dashoffset:20;stroke-opacity:1" />
    <path
       style="opacity:1;fill:#ffffff;fill-opacity:1;stroke:#000000;stroke-width:1.05833328;stroke-linecap:round;stroke-linejoin:miter;stroke-miterlimit:4;stroke-dasharray:none;stroke-dashoffset:20;stroke-opacity:1"
       d="m 13.229166,270.54164 c -1.465789,0 -2.645833,1.18004 -2.645833,2.64583 v 2.64584 h 7.9375 v -2.64584 c 0,-1.46579 -1.180044,-2.64583 -2.645833,-2.64583 z"
       id="rect845"
       inkscape:connector-curvature="0" />
    <path
       inkscape:connector-curvature="0"
       id="path850"
       d="m 26.458333,270.54164 c -1.465789,0 -2.645833,1.18004 -2.645833,2.64583 v 2.64584 H 31.75 v -2.64584 c 0,-1.46579 -1.180044,-2.64583 -2.645833,-2.64583 z"
       style="opacity:1;fill:#ffffff;fill-opacity:1;stroke:#000000;stroke-width:1.05833328;stroke-linecap:round;stroke-linejoin:miter;stroke-miterlimit:4;stroke-dasharray:none;stroke-dashoffset:20;stroke-opacity:1" />
    <path
       inkscape:connector-curvature="0"
       id="path852"
       d="m 13.229166,281.12497 c -1.465789,0 -2.645833,1.18004 -2.645833,2.64583 v 2.64584 h 7.9375 v -2.64584 c 0,-1.46579 -1.180044,-2.64583 -2.645833,-2.64583 z"
       style="opacity:1;fill:#ffffff;fill-opacity:1;stroke:#000000;stroke-width:1.05833328;stroke-linecap:round;stroke-linejoin:miter;stroke-miterlimit:4;stroke-dasharray:none;stroke-dashoffset:20;stroke-opacity:1" />
    <path
       style="opacity:1;fill:#ffffff;fill-opacity:1;stroke:#000000;stroke-width:1.05833328;stroke-linecap:round;stroke-linejoin:miter;stroke-miterlimit:4;stroke-dasharray:none;stroke-dashoffset:20;stroke-opacity:1"
       d="m 13.229166,291.7083 c -1.465789,0 -2.645833,1.18004 -2.645833,2.64583 v 2.64584 h 7.9375 v -2.64584 c 0,-1.46579 -1.180044,-2.64583 -2.645833,-2.64583 z"
       id="path854"
       inkscape:connector-curvature="0" />
    <path
       style="opacity:1;fill:#ffffff;fill-opacity:1;stroke:#000000;stroke-width:1.05833328;stroke-linecap:round;stroke-linejoin:miter;stroke-miterlimit:4;stroke-dasharray:none;stroke-dashoffset:20;stroke-opacity:1"
       d="m 26.458333,281.12497 c -1.465789,0 -2.645833,1.18004 -2.645833,2.64583 v 2.64584 H 31.75 v -2.64584 c 0,-1.46579 -1.180044,-2.64583 -2.645833,-2.64583 z"
       id="path856"
       inkscape:connector-curvature="0" />
    <path
       inkscape:connector-curvature="0"
       id="path858"
       d="m 26.458333,291.7083 c -1.465789,0 -2.645833,1.18004 -2.645833,2.64583 v 2.64584 H 31.75 v -2.64584 c 0,-1.46579 -1.180044,-2.64583 -2.645833,-2.64583 z"
       style="opacity:1;fill:#ffffff;fill-opacity:1;stroke:#000000;stroke-width:1.05833328;stroke-linecap:round;stroke-linejoin:miter;stroke-miterlimit:4;stroke-dasharray:none;stroke-dashoffset:20;stroke-opacity:1" />
    <rect
       style="opacity:1;fill:#ffffff;fill-opacity:1;stroke:#000000;stroke-width:1.05833328;stroke-linecap:round;stroke-linejoin:miter;stroke-miterlimit:4;stroke-dasharray:none;stroke-dashoffset:20;stroke-opacity:1"
       id="rect860"
       width="5.2916665"
       height="5.2916665"
       x="37.041668"
       y="254.66664" />
    <rect
       y="257.31247"
       x="47.624996"
       height="5.2916665"
       width="5.2916665"
       id="rect862"
       style="opacity:1;fill:#ffffff;fill-opacity:1;stroke:#000000;stroke-width:1.05833328;stroke-linecap:round;stroke-linejoin:miter;stroke-miterlimit:4;stroke-dasharray:none;stroke-dashoffset:20;stroke-opacity:1" />
    <rect
       style="opacity:1;fill:#ffffff;fill-opacity:1;stroke:#000000;stroke-width:1.05833328;stroke-linecap:round;stroke-linejoin:miter;stroke-miterlimit:4;stroke-dasharray:none;stroke-dashoffset:20;stroke-opacity:1"
       id="rect864"
       width="5.2916665"
       height="5.2916665"
       x="37.041668"
       y="267.89581" />
    <rect
       y="270.54166"
       x="47.624996"
       height="5.2916665"
       width="5.2916665"
       id="rect866"
       style="opacity:1;fill:#ffffff;fill-opacity:1;stroke:#000000;stroke-width:1.05833328;stroke-linecap:round;stroke-linejoin:miter;stroke-miterlimit:4;stroke-dasharray:none;stroke-dashoffset:20;stroke-opacity:1" />
    <rect
       y="281.12497"
       x="37.041672"
       height="5.2916665"
       width="5.2916665"
       id="rect868"
       style="opacity:1;fill:#ffffff;fill-opacity:1;stroke:#000000;stroke-width:1.05833328;stroke-linecap:round;stroke-linejoin:miter;stroke-miterlimit:4;stroke-dasharray:none;stroke-dashoffset:20;stroke-opacity:1" />
    <rect
       style="opacity:1;fill:#ffffff;fill-opacity:1;stroke:#000000;stroke-width:1.05833328;stroke-linecap:round;stroke-linejoin:miter;stroke-miterlimit:4;stroke-dasharray:none;stroke-dashoffset:20;stroke-opacity:1"
       id="rect870"
       width="5.2916665"
       height="5.2916665"
       x="47.625"
       y="283.77081" />
    <rect
       style="opacity:1;fill:#ffffff;fill-opacity:1;stroke:#000000;stroke-width:1.05833328;stroke-linecap:round;stroke-linejoin:miter;stroke-miterlimit:4;stroke-dasharray:none;stroke-dashoffset:20;stroke-opacity:1"
       id="rect876"
       width="5.2916665"
       height="2.6458333"
       x="58.208332"
       y="262.60413" />
    <rect
       y="267.89578"
       x="58.208332"
       height="2.6458333"
       width="5.2916665"
       id="rect878"
       style="opacity:1;fill:#ffffff;fill-opacity:1;stroke:#000000;stroke-width:1.05833328;stroke-linecap:round;stroke-linejoin:miter;stroke-miterlimit:4;stroke-dasharray:none;stroke-dashoffset:20;stroke-opacity:1" />
    <rect
       style="opacity:1;fill:#ffffff;fill-opacity:1;stroke:#000000;stroke-width:1.05833328;stroke-linecap:round;stroke-linejoin:miter;stroke-miterlimit:4;stroke-dasharray:none;stroke-dashoffset:20;stroke-opacity:1"
       id="rect880"
       width="5.2916665"
       height="2.6458333"
       x="58.208332"
       y="273.18747" />
    <rect
       y="278.47913"
       x="58.208332"
       height="2.6458333"
       width="5.2916665"
       id="rect882"
       style="opacity:1;fill:#ffffff;fill-opacity:1;stroke:#000000;stroke-width:1.05833328;stroke-linecap:round;stroke-linejoin:miter;stroke-miterlimit:4;stroke-dasharray:none;stroke-dashoffset:20;stroke-opacity:1" />
    <rect
       style="opacity:1;fill:#ffffff;fill-opacity:1;stroke:#000000;stroke-width:1.05833328;stroke-linecap:round;stroke-linejoin:miter;stroke-miterlimit:4;stroke-dasharray:none;stroke-dashoffset:20;stroke-opacity:1"
       id="rect884"
       width="5.2916665"
       height="2.6458333"
       x="58.208332"
       y="283.77081" />
    <rect
       y="291.70828"
       x="58.208332"
       height="2.6458333"
       width="5.2916665"
       id="rect886"
       style="opacity:1;fill:#ffffff;fill-opacity:1;stroke:#000000;stroke-width:1.05833328;stroke-linecap:round;stroke-linejoin:miter;stroke-miterlimit:4;stroke-dasharray:none;stroke-dashoffset:20;stroke-opacity:1" />
    <rect
       style="opacity:1;fill:#ffffff;fill-opacity:1;stroke:#000000;stroke-width:1.05833328;stroke-linecap:round;stroke-linejoin:miter;stroke-miterlimit:4;stroke-dasharray:none;stroke-dashoffset:20;stroke-opacity:1"
       id="rect888"
       width="18.520834"
       height="2.6458333"
       x="68.791664"
       y="273.18747" />
    <rect
       y="278.47913"
       x="68.791664"
       height="2.6458333"
       width="18.520834"
       id="rect895"
       style="opacity:1;fill:#ffffff;fill-opacity:1;stroke:#000000;stroke-width:1.05833328;stroke-linecap:round;stroke-linejoin:miter;stroke-miterlimit:4;stroke-dasharray:none;stroke-dashoffset:20;stroke-opacity:1" />
    <rect
       style="opacity:1;fill:#ffffff;fill-opacity:1;stroke:#000000;stroke-width:1.05833328;stroke-linecap:round;stroke-linejoin:miter;stroke-miterlimit:4;stroke-dasharray:none;stroke-dashoffset:20;stroke-opacity:1"
       id="rect897"
       width="18.520834"
       height="2.6458333"
       x="68.791664"
       y="283.77078" />
    <rect
       y="289.06247"
       x="68.791664"
       height="2.6458333"
       width="18.520834"
       id="rect899"
       style="opacity:1;fill:#ffffff;fill-opacity:1;stroke:#000000;stroke-width:1.05833328;stroke-linecap:round;stroke-linejoin:miter;stroke-miterlimit:4;stroke-dasharray:none;stroke-dashoffset:20;stroke-opacity:1" />
    <rect
       style="opacity:1;fill:#ffffff;fill-opacity:1;stroke:#000000;stroke-width:1.05833328;stroke-linecap:round;stroke-linejoin:miter;stroke-miterlimit:4;stroke-dasharray:none;stroke-dashoffset:20;stroke-opacity:1"
       id="rect901"
       width="18.520834"
       height="2.6458333"
       x="68.791664"
       y="289.06247" />
    <path
       inkscape:connector-curvature="0"
       id="path907"
       d="m 13.229166,270.54164 c -1.465789,0 -2.645833,1.18004 -2.645833,2.64583 v 2.64584 h 7.9375 v -2.64584 c 0,-1.46579 -1.180044,-2.64583 -2.645833,-2.64583 z"
       style="opacity:1;fill:#ffffff;fill-opacity:1;stroke:#000000;stroke-width:1.05833328;stroke-linecap:round;stroke-linejoin:miter;stroke-miterlimit:4;stroke-dasharray:none;stroke-dashoffset:20;stroke-opacity:1" />
    <path
       style="opacity:1;fill:#ffffff;fill-opacity:1;stroke:#000000;stroke-width:0.86412525;stroke-linecap:round;stroke-linejoin:miter;stroke-miterlimit:4;stroke-dasharray:none;stroke-dashoffset:20;stroke-opacity:1"
       d="m 94.368053,265.24997 c -0.977192,0 -1.763888,1.18004 -1.763888,2.64583 v 2.64584 h 5.291667 v -2.64584 c 0,-1.46579 -0.786699,-2.64583 -1.763891,-2.64583 z"
       id="path909"
       inkscape:connector-curvature="0" />
    <path
       inkscape:connector-curvature="0"
       id="path911"
       d="m 102.30555,265.24997 c -0.97719,0 -1.76389,1.18004 -1.76389,2.64583 v 2.64584 h 5.29167 v -2.64584 c 0,-1.46579 -0.7867,-2.64583 -1.76389,-2.64583 z"
       style="opacity:1;fill:#ffffff;fill-opacity:1;stroke:#000000;stroke-width:0.86412525;stroke-linecap:round;stroke-linejoin:miter;stroke-miterlimit:4;stroke-dasharray:none;stroke-dashoffset:20;stroke-opacity:1" />
    <path
       style="opacity:1;fill:#ffffff;fill-opacity:1;stroke:#000000;stroke-width:0.86412525;stroke-linecap:round;stroke-linejoin:miter;stroke-miterlimit:4;stroke-dasharray:none;stroke-dashoffset:20;stroke-opacity:1"
       d="m 110.24306,265.24997 c -0.97719,0 -1.76389,1.18004 -1.76389,2.64583 v 2.64584 h 5.29167 v -2.64584 c 0,-1.46579 -0.7867,-2.64583 -1.76389,-2.64583 z"
       id="path913"
       inkscape:connector-curvature="0" />
    <path
       inkscape:connector-curvature="0"
       id="path915"
       d="m 94.368048,273.18747 c -0.977192,0 -1.763888,1.18004 -1.763888,2.64583 v 2.64584 h 5.291667 v -2.64584 c 0,-1.46579 -0.786699,-2.64583 -1.763891,-2.64583 z"
       style="opacity:1;fill:#ffffff;fill-opacity:1;stroke:#000000;stroke-width:0.86412525;stroke-linecap:round;stroke-linejoin:miter;stroke-miterlimit:4;stroke-dasharray:none;stroke-dashoffset:20;stroke-opacity:1" />
    <path
       style="opacity:1;fill:#ffffff;fill-opacity:1;stroke:#000000;stroke-width:0.86412525;stroke-linecap:round;stroke-linejoin:miter;stroke-miterlimit:4;stroke-dasharray:none;stroke-dashoffset:20;stroke-opacity:1"
       d="m 102.30555,273.18747 c -0.97719,0 -1.76389,1.18004 -1.76389,2.64583 v 2.64584 h 5.29167 v -2.64584 c 0,-1.46579 -0.7867,-2.64583 -1.76389,-2.64583 z"
       id="path917"
       inkscape:connector-curvature="0" />
    <path
       inkscape:connector-curvature="0"
       id="path919"
       d="m 110.24306,273.18747 c -0.97719,0 -1.76389,1.18004 -1.76389,2.64583 v 2.64584 h 5.29167 v -2.64584 c 0,-1.46579 -0.7867,-2.64583 -1.76389,-2.64583 z"
       style="opacity:1;fill:#ffffff;fill-opacity:1;stroke:#000000;stroke-width:0.86412525;stroke-linecap:round;stroke-linejoin:miter;stroke-miterlimit:4;stroke-dasharray:none;stroke-dashoffset:20;stroke-opacity:1" />
    <path
       style="opacity:1;fill:#ffffff;fill-opacity:1;stroke:#000000;stroke-width:0.86412525;stroke-linecap:round;stroke-linejoin:miter;stroke-miterlimit:4;stroke-dasharray:none;stroke-dashoffset:20;stroke-opacity:1"
       d="m 94.368043,281.12497 c -0.977192,0 -1.763888,1.18004 -1.763888,2.64583 v 2.64584 h 5.291667 v -2.64584 c 0,-1.46579 -0.786699,-2.64583 -1.763891,-2.64583 z"
       id="path921"
       inkscape:connector-curvature="0" />
    <path
       inkscape:connector-curvature="0"
       id="path923"
       d="m 102.30555,281.12497 c -0.97719,0 -1.76389,1.18004 -1.76389,2.64583 v 2.64584 h 5.29167 v -2.64584 c 0,-1.46579 -0.7867,-2.64583 -1.76389,-2.64583 z"
       style="opacity:1;fill:#ffffff;fill-opacity:1;stroke:#000000;stroke-width:0.86412525;stroke-linecap:round;stroke-linejoin:miter;stroke-miterlimit:4;stroke-dasharray:none;stroke-dashoffset:20;stroke-opacity:1" />
    <path
       style="opacity:1;fill:#ffffff;fill-opacity:1;stroke:#000000;stroke-width:0.86412525;stroke-linecap:round;stroke-linejoin:miter;stroke-miterlimit:4;stroke-dasharray:none;stroke-dashoffset:20;stroke-opacity:1"
       d="m 110.24306,281.12497 c -0.97719,0 -1.76389,1.18004 -1.76389,2.64583 v 2.64584 h 5.29167 v -2.64584 c 0,-1.46579 -0.7867,-2.64583 -1.76389,-2.64583 z"
       id="path925"
       inkscape:connector-curvature="0" />
    <path
       inkscape:connector-curvature="0"
       id="path927"
       d="m 94.368038,289.06247 c -0.977192,0 -1.763888,1.18004 -1.763888,2.64583 v 2.64584 h 5.291667 v -2.64584 c 0,-1.46579 -0.786699,-2.64583 -1.763891,-2.64583 z"
       style="opacity:1;fill:#ffffff;fill-opacity:1;stroke:#000000;stroke-width:0.86412525;stroke-linecap:round;stroke-linejoin:miter;stroke-miterlimit:4;stroke-dasharray:none;stroke-dashoffset:20;stroke-opacity:1" />
    <path
       style="opacity:1;fill:#ffffff;fill-opacity:1;stroke:#000000;stroke-width:0.86412525;stroke-linecap:round;stroke-linejoin:miter;stroke-miterlimit:4;stroke-dasharray:none;stroke-dashoffset:20;stroke-opacity:1"
       d="m 102.30555,289.06247 c -0.97719,0 -1.76389,1.18004 -1.76389,2.64583 v 2.64584 h 5.29167 v -2.64584 c 0,-1.46579 -0.7867,-2.64583 -1.76389,-2.64583 z"
       id="path929"
       inkscape:connector-curvature="0" />
    <path
       inkscape:connector-curvature="0"
       id="path931"
       d="m 110.24306,289.06247 c -0.97719,0 -1.76389,1.18004 -1.76389,2.64583 v 2.64584 h 5.29167 v -2.64584 c 0,-1.46579 -0.7867,-2.64583 -1.76389,-2.64583 z"
       style="opacity:1;fill:#ffffff;fill-opacity:1;stroke:#000000;stroke-width:0.86412525;stroke-linecap:round;stroke-linejoin:miter;stroke-miterlimit:4;stroke-dasharray:none;stroke-dashoffset:20;stroke-opacity:1" />
  </g>
</svg>
