<?xml version="1.0" encoding="UTF-8" standalone="no"?>
<!-- Created with Inkscape (http://www.inkscape.org/) -->

<svg
   xmlns:dc="http://purl.org/dc/elements/1.1/"
   xmlns:cc="http://creativecommons.org/ns#"
   xmlns:rdf="http://www.w3.org/1999/02/22-rdf-syntax-ns#"
   xmlns:svg="http://www.w3.org/2000/svg"
   xmlns="http://www.w3.org/2000/svg"
   xmlns:sodipodi="http://sodipodi.sourceforge.net/DTD/sodipodi-0.dtd"
   xmlns:inkscape="http://www.inkscape.org/namespaces/inkscape"
   width="440"
   height="220"
   viewBox="0 0 116.41666 58.208335"
   version="1.1"
   id="svg8"
   inkscape:version="0.92.4 (unknown)"
   sodipodi:docname="drawing.svg">
  <defs
     id="defs2" />
  <sodipodi:namedview
     id="base"
     pagecolor="#ffffff"
     bordercolor="#666666"
     borderopacity="1.0"
     inkscape:pageopacity="0.0"
     inkscape:pageshadow="2"
     inkscape:zoom="1"
     inkscape:cx="194.12482"
     inkscape:cy="99.871348"
     inkscape:document-units="px"
     inkscape:current-layer="layer2"
     showgrid="false"
     units="px"
     inkscape:window-width="1366"
     inkscape:window-height="689"
     inkscape:window-x="0"
     inkscape:window-y="24"
     inkscape:window-maximized="1" />
  <metadata
     id="metadata5">
    <rdf:RDF>
      <cc:Work
         rdf:about="">
        <dc:format>image/svg+xml</dc:format>
        <dc:type
           rdf:resource="http://purl.org/dc/dcmitype/StillImage" />
        <dc:title></dc:title>
      </cc:Work>
    </rdf:RDF>
  </metadata>
  <g
     inkscape:label="Layer 1"
     inkscape:groupmode="layer"
     id="layer1"
     transform="translate(0,-238.79165)"
     sodipodi:insensitive="true">
    <rect
       style="opacity:1;fill:#dde9af;fill-opacity:1;stroke:none;stroke-width:0.26458332;stroke-linecap:round;stroke-linejoin:round;stroke-miterlimit:4;stroke-dasharray:none;stroke-dashoffset:20;stroke-opacity:1"
       id="rect817"
       width="116.79464"
       height="57.830357"
       x="0"
       y="238.98064"
       ry="0.661461" />
  </g>
  <g
     inkscape:groupmode="layer"
     id="layer2"
     inkscape:label="Layer 2">
    <path
       style="fill:#89a02c;stroke:#000000;stroke-width:0.26458332px;stroke-linecap:butt;stroke-linejoin:miter;stroke-opacity:1"
       d="m 46.17081,27.071433 2.939965,10.49033 12.895754,-0.06682 4.075862,-10.891234 z"
       id="path822"
       inkscape:connector-curvature="0" />
    <path
       style="fill:#89a02c;stroke:#000000;stroke-width:0.26458332px;stroke-linecap:butt;stroke-linejoin:miter;stroke-opacity:1"
       d="m 44.634012,24.866459 0.06681,2.80633 c 0,0 3.942226,1.670434 9.488069,1.403165 5.545842,-0.267269 14.766642,-1.870887 14.766642,-1.870887 l 0.400905,-3.140416 c 0,0 -5.479026,-1.670435 -9.220801,-1.5368 -3.741772,0.133635 -15.50163,2.338608 -15.50163,2.338608 z"
       id="path828"
       inkscape:connector-curvature="0" />
    <path
       style="fill:none;stroke:#000000;stroke-width:0.26458332px;stroke-linecap:butt;stroke-linejoin:miter;stroke-opacity:1"
       d="m 49.712133,25.200546 c 0,0 -5.923508,1.937704 5.144937,1.937704 14.474496,0 10.022607,-2.071339 10.022607,-2.071339"
       id="path830"
       inkscape:connector-curvature="0"
       sodipodi:nodetypes="csc" />
    <ellipse
       style="opacity:1;fill:#677821;fill-opacity:1;stroke:none;stroke-width:0.24674883;stroke-linecap:round;stroke-linejoin:round;stroke-miterlimit:4;stroke-dasharray:none;stroke-dashoffset:20;stroke-opacity:1"
       id="path832"
       cx="56.331673"
       cy="27.245401"
       rx="7.5837731"
       ry="0.83521724"
       transform="rotate(-1.358598)" />
    <path
       style="fill:#bcd35f;stroke:#000000;stroke-width:0.26458332px;stroke-linecap:butt;stroke-linejoin:miter;stroke-opacity:1"
       d="m 56.696427,26.363839 0.283482,-9.827381 c 0,0 0.0945,-3.874256 -3.023809,-3.96875 -3.118302,-0.09449 -0.661458,3.212798 -0.661458,3.212798 0,0 1.529019,1.201503 3.667175,0.49992 0,0 0.868626,-2.004522 2.939965,-2.171565 2.071339,-0.167043 3.040191,1.336348 3.040191,1.336348 0,0 1.5368,2.605877 -1.937704,2.405425 -3.474504,-0.200452 -4.042452,-1.570208 -4.042452,-1.570208"
       id="path834"
       inkscape:connector-curvature="0" />
    <path
       style="fill:#ececec;stroke:none;stroke-width:0.26458332px;stroke-linecap:butt;stroke-linejoin:miter;stroke-opacity:1;opacity:0.7"
       d="m 53.21196,12.85119 c 0,0 1.441034,-0.08268 1.996187,0.33073 0.448848,0.519717 -0.342542,0.307105 -0.342542,0.307105 0,0 -0.944938,0.01182 -1.511903,-0.188989 C 52.904855,12.874813 53.21196,12.85119 53.21196,12.85119 Z"
       id="path836"
       inkscape:connector-curvature="0"
       sodipodi:nodetypes="ccccc" />
    <ellipse
       style="opacity:0.7;fill:#ececec;fill-opacity:1;stroke:none;stroke-width:0.26458332;stroke-linecap:round;stroke-linejoin:round;stroke-miterlimit:4;stroke-dasharray:none;stroke-dashoffset:20;stroke-opacity:1"
       id="path838"
       cx="-19.322485"
       cy="-53.924328"
       rx="0.17717634"
       ry="0.24804688"
       transform="rotate(123.49227)" />
    <path
       style="fill:none;stroke:#dee5c2;stroke-width:0.26499999;stroke-linecap:round;stroke-linejoin:miter;stroke-miterlimit:4;stroke-dasharray:none;stroke-opacity:1"
       d="m 57.757592,15.716729 c 0,0 1.149284,-1.231966 2.00918,-1.265039"
       id="path852"
       inkscape:connector-curvature="0" />
  </g>
</svg>
