<?xml version="1.0" encoding="UTF-8" standalone="no"?>
<svg
   xmlns:dc="http://purl.org/dc/elements/1.1/"
   xmlns:cc="http://creativecommons.org/ns#"
   xmlns:rdf="http://www.w3.org/1999/02/22-rdf-syntax-ns#"
   xmlns:svg="http://www.w3.org/2000/svg"
   xmlns="http://www.w3.org/2000/svg"
   id="svg8"
   version="1.1"
   viewBox="0 0 132.29166 264.58334"
   height="1000"
   width="500">
  <defs
     id="defs2" />
  <metadata
     id="metadata5">
    <rdf:RDF>
      <cc:Work
         rdf:about="">
        <dc:format>image/svg+xml</dc:format>
        <dc:type
           rdf:resource="http://purl.org/dc/dcmitype/StillImage" />
        <dc:title></dc:title>
      </cc:Work>
    </rdf:RDF>
  </metadata>
  <g
     id="layer2">
    <rect
       ry="0.046772249"
       y="32.416641"
       x="0"
       height="264.58334"
       width="132.29167"
       id="rect817"
       style="opacity:1;fill:#49a1ff;fill-opacity:1;stroke:none;stroke-width:1.05833328;stroke-linecap:round;stroke-linejoin:round;stroke-miterlimit:4;stroke-dasharray:none;stroke-dashoffset:0;stroke-opacity:0.98999999"
       transform="translate(0,-32.416642)" />
  </g>
  <g
     transform="translate(0,-32.416641)"
     id="layer1">
    <path
       id="path833"
       d="m 81.190519,157.03594 c -0.394815,0.008 -0.710664,0.0711 -0.710664,0.0711 -22.46051,4.49212 -13.476303,24.70656 -13.476303,24.70656 0,0 -4.492096,15.72235 0,44.92101 h 49.413108 c 0,0 8.98421,-33.69076 0,-44.92101 5.63112,-25.62659 -8.9842,-24.70656 -8.9842,-24.70656 0,0 -2.24605,0 -2.24605,0.89842 0,0.89843 2.24605,1.34763 2.24605,1.34763 11.23025,2.24606 6.73815,20.21446 6.73815,20.21446 0,0 -8.9842,-13.4763 -24.706552,-13.4763 -15.722359,0 -20.214455,13.4763 -20.214455,13.4763 -4.492115,-17.9684 11.230252,-20.21446 11.230252,-20.21446 0,0 2.246051,0 2.246051,-1.34763 0,-0.84227 -0.877361,-0.98264 -1.535387,-0.96948 z"
       style="fill:#d1ff36;fill-opacity:1;stroke:#000000;stroke-width:0.44921008px;stroke-linecap:butt;stroke-linejoin:miter;stroke-opacity:1" />
    <circle
       r="2.2460506"
       cy="173.31064"
       cx="83.367638"
       id="path853"
       style="opacity:1;fill:#e4dbd7;fill-opacity:1;stroke:#000000;stroke-width:0.44921008;stroke-linecap:round;stroke-linejoin:round;stroke-miterlimit:4;stroke-dasharray:none;stroke-dashoffset:0;stroke-opacity:0.98999999" />
    <circle
       r="2.2460506"
       cy="174.11281"
       cx="97.646111"
       id="path855"
       style="opacity:1;fill:#e4dbd7;fill-opacity:1;stroke:#000000;stroke-width:0.44921008;stroke-linecap:round;stroke-linejoin:round;stroke-miterlimit:4;stroke-dasharray:none;stroke-dashoffset:0;stroke-opacity:0.98999999" />
    <path
       id="path857"
       d="m 75.987759,177.32146 c 0,0 4.492095,2.24604 6.738152,2.24604"
       style="fill:none;stroke:#000000;stroke-width:0.44921008px;stroke-linecap:butt;stroke-linejoin:miter;stroke-opacity:1" />
    <path
       id="path859"
       d="m 75.987759,181.81356 h 6.738152"
       style="fill:none;stroke:#000000;stroke-width:0.44921008px;stroke-linecap:butt;stroke-linejoin:miter;stroke-opacity:1" />
    <path
       id="path861"
       d="m 75.987759,186.30565 c 0,0 4.492095,-2.24604 6.738152,-2.24604"
       style="fill:none;stroke:#000000;stroke-width:0.44921008px;stroke-linecap:butt;stroke-linejoin:miter;stroke-opacity:1" />
    <path
       style="fill:none;stroke:#000000;stroke-width:0.44921008px;stroke-linecap:butt;stroke-linejoin:miter;stroke-opacity:1"
       d="m 105.18641,177.32146 c 0,0 -4.4921,2.24604 -6.738152,2.24604"
       id="path863" />
    <path
       style="fill:none;stroke:#000000;stroke-width:0.44921008px;stroke-linecap:butt;stroke-linejoin:miter;stroke-opacity:1"
       d="M 105.18641,181.81356 H 98.448258"
       id="path865" />
    <path
       style="fill:none;stroke:#000000;stroke-width:0.44921008px;stroke-linecap:butt;stroke-linejoin:miter;stroke-opacity:1"
       d="m 105.18641,186.30565 c 0,0 -4.4921,-2.24604 -6.738152,-2.24604"
       id="path867" />
    <circle
       r="0.44921008"
       cy="173.73235"
       cx="83.288559"
       id="path882"
       style="opacity:1;fill:#000000;fill-opacity:1;stroke:#000000;stroke-width:0.44921008;stroke-linecap:round;stroke-linejoin:round;stroke-miterlimit:4;stroke-dasharray:none;stroke-dashoffset:0;stroke-opacity:0.98999999" />
    <circle
       style="opacity:1;fill:#000000;fill-opacity:1;stroke:#000000;stroke-width:0.44921008;stroke-linecap:round;stroke-linejoin:round;stroke-miterlimit:4;stroke-dasharray:none;stroke-dashoffset:0;stroke-opacity:0.98999999"
       id="circle912"
       cx="97.75251"
       cy="174.69661"
       r="0.44921008" />
    <path
       id="path914"
       d="m 84.97195,181.81356 c 0,0 0,2.24605 4.492112,2.24605 4.492098,0 6.738149,-2.24605 6.738149,-2.24605"
       style="fill:none;stroke:#000000;stroke-width:0.44921008px;stroke-linecap:butt;stroke-linejoin:miter;stroke-opacity:1" />
    <path
       id="path962"
       d="m 88.807343,161.09549 c 0,0 -2.115798,-7.17822 -0.850185,-9.50173 1.265607,-2.3235 3.060167,-2.85245 4.221912,-2.21965 1.161757,0.63281 0.425097,4.75086 0.425097,4.75086 0,0 1.898414,-3.48524 4.221914,-2.21964 2.323502,1.26561 1.057882,3.58911 0.425088,4.75086 -0.632806,1.16175 -8.443826,4.4393 -8.443826,4.4393 z"
       style="fill:#ff2a2a;stroke:#000000;stroke-width:0.26458332px;stroke-linecap:butt;stroke-linejoin:miter;stroke-opacity:1" />
  </g>
</svg>
